<svg width="96" height="32" viewBox="0 0 96 32" fill="none" xmlns="http://www.w3.org/2000/svg">
<path d="M26.0615 2.52734H30.1253V28.0077H26.0615V2.52734Z" fill="#17313B"/>
<path d="M44.2602 19.9326C44.2602 23.8803 41.0798 24.2392 40.0197 24.2392C37.5461 24.2392 37.1927 21.9065 37.1927 20.6504V10.7812H33.1289V20.471C33.1289 22.8037 33.8357 24.9569 35.2492 26.213C36.486 27.4691 38.0761 28.0074 40.0197 28.0074C41.4332 28.0074 43.2001 27.6485 44.2602 26.5719V28.0074H48.324V10.7812H44.2602V19.9326Z" fill="#17313B"/>
<path d="M56.2745 4.50195H52.2107V10.7823H49.207V14.73H52.2107V28.0085H56.2745V14.73H59.2782V10.7823H56.2745V4.50195Z" fill="#17313B"/>
<path d="M71.9991 22.8042C71.1157 23.5219 69.8789 24.0602 68.642 24.0602C65.8151 24.0602 63.8715 21.907 63.8715 19.0359C63.8715 16.1649 65.8151 14.1911 68.642 14.1911C69.8789 14.1911 71.1157 14.55 71.9991 15.4471L72.5292 15.9855L75.3562 13.2939L74.6494 12.7556C73.0592 11.32 70.939 10.4229 68.642 10.4229C63.6948 10.4229 59.9844 14.1911 59.9844 19.2154C59.9844 24.2397 63.6948 28.0079 68.642 28.0079C70.939 28.0079 73.0592 27.1107 74.6494 25.6752L75.3562 25.1369L72.5292 22.2658L71.9991 22.8042Z" fill="#17313B"/>
<path d="M89.6689 12.2171C88.4321 10.961 87.1953 10.4227 85.2517 10.4227C83.8382 10.4227 82.4247 10.7815 81.3646 11.8582V2.52734H77.3008V28.0077H81.3646V18.4974C81.3646 14.5498 84.0149 14.1909 85.075 14.1909C87.5486 14.1909 87.372 16.5236 87.372 17.7797V27.8283H91.4357V17.9591C91.4357 15.6264 90.9057 13.4731 89.6689 12.2171Z" fill="#17313B"/>
<path d="M68.4657 22.0868C70.027 22.0868 71.2927 20.8014 71.2927 19.2158C71.2927 17.6301 70.027 16.3447 68.4657 16.3447C66.9044 16.3447 65.6387 17.6301 65.6387 19.2158C65.6387 20.8014 66.9044 22.0868 68.4657 22.0868Z" fill="#FF5941"/>
<path d="M20.4071 21.7271C18.9936 23.1626 16.8734 24.0598 14.5765 24.0598C10.1593 24.0598 6.97891 20.471 6.97891 15.6261C6.97891 10.7813 10.1593 7.19251 14.7531 7.19251C16.8734 7.19251 18.9936 8.0897 20.5838 9.70465L21.1139 10.243L23.7642 7.55138L23.2341 7.01306C20.9372 4.68035 17.9335 3.42428 14.7531 3.42428C8.03904 3.24484 3.0918 8.62802 3.0918 15.6261C3.0918 22.6243 8.03904 28.0075 14.5765 28.0075C17.7568 28.0075 20.9372 26.7514 23.0574 24.4187L23.5875 23.8804L20.9372 21.1888L20.4071 21.7271Z" fill="#17313B"/>
</svg>
