<svg width="301" height="282" viewBox="0 0 301 282" fill="none" xmlns="http://www.w3.org/2000/svg">
<path d="M70.5503 261.926V225.174C70.5503 222.185 72.9831 219.86 75.8582 219.86H106.268C114.672 219.86 121.528 212.997 121.528 204.584V173.587C121.528 170.599 123.961 168.274 126.836 168.274H157.245C165.65 168.274 172.506 161.41 172.506 152.997V140.488L191.636 135.507C192.299 135.285 192.852 135.064 193.405 134.732L289.389 38.8651C292.043 36.2083 293.481 32.6659 293.481 28.9021C293.481 25.1383 292.043 21.5959 289.389 18.9391L284.524 14.0682C279.105 8.64392 270.148 8.64392 264.73 14.0682L169.078 110.267C168.746 110.82 168.414 111.485 168.303 112.149L162.774 134.399C162.553 135.064 162.553 136.503 162.553 136.503V153.108C162.553 156.097 160.12 158.421 157.245 158.421H126.836C118.432 158.421 111.576 165.285 111.576 173.698V204.694C111.576 207.683 109.143 210.008 106.268 210.008H75.8582C67.4541 210.008 60.5981 216.871 60.5981 225.284V262.037H0V272H301V262.037H70.5503V261.926ZM272.028 20.9317C273.576 19.3819 276.23 19.3819 277.778 20.9317L282.644 25.8025C283.418 26.5774 283.86 27.5737 283.86 28.6807C283.86 29.7877 283.418 30.784 282.644 31.5589L193.848 120.562L183.232 109.935L272.028 20.9317ZM176.597 120.451L183.342 127.204L174.275 129.529L176.597 120.451Z" fill="#191919"/>
</svg>
