<svg width="350" height="249" viewBox="0 0 350 249" fill="none" xmlns="http://www.w3.org/2000/svg">
<path d="M79.3527 164.786H270.345C277.227 164.786 282.794 159.219 282.794 152.336V34.618C282.794 27.735 277.227 22.168 270.345 22.168H79.3527C72.4701 22.168 66.9033 27.735 66.9033 34.618V152.336C66.9033 159.118 72.4701 164.786 79.3527 164.786ZM76.0126 34.618C76.0126 32.796 77.5308 31.2777 79.3527 31.2777H270.345C272.166 31.2777 273.685 32.796 273.685 34.618V152.336C273.685 154.158 272.166 155.677 270.345 155.677H79.3527C77.5308 155.677 76.0126 154.158 76.0126 152.336V34.618Z" fill="#191919"/>
<path d="M345.648 214.99C345.142 214.484 344.636 214.079 344.13 213.776L303.138 181.79C304.656 179.766 305.567 177.134 305.567 174.401V12.45C305.466 5.56707 299.899 0 293.016 0H56.7814C49.8988 0 44.332 5.56707 44.332 12.45V174.401C44.332 177.033 45.1417 179.462 46.5587 181.487L3.54251 214.99L3.84614 215.395C1.41699 217.723 0 221.063 0 224.707V236.044C0 243.23 5.66802 249 12.6518 249H337.348C344.332 249 350 243.129 350 236.044V224.707C349.899 220.76 348.279 217.318 345.648 214.99ZM56.7814 186.851H293.117C293.725 186.851 294.332 186.75 294.939 186.649L326.923 211.549H22.2672L54.3522 186.548C55.0607 186.851 55.8704 186.851 56.7814 186.851ZM53.3401 12.45C53.3401 10.628 54.8583 9.10976 56.6802 9.10976H293.016C294.838 9.10976 296.356 10.628 296.356 12.45V174.401C296.356 176.223 294.838 177.741 293.016 177.741H56.7814C54.9595 177.741 53.4413 176.223 53.4413 174.401V12.45H53.3401ZM340.992 236.044C340.992 238.271 339.271 240.093 337.247 240.093H12.5506C10.5263 240.093 8.80568 238.271 8.80568 236.044V224.707C8.80568 222.48 10.5263 220.659 12.5506 220.659H337.247C337.854 220.659 338.462 220.861 338.968 221.165L339.879 221.873C340.587 222.582 340.992 223.594 340.992 224.809V236.044Z" fill="#191919"/>
<path d="M99.5949 108.608H121.356L125.101 117.718H134.818L114.17 69.5371H106.68L86.0322 117.718H95.7488L99.5949 108.608ZM110.526 82.5944L117.814 100.105H103.137L110.526 82.5944Z" fill="#191919"/>
<path d="M259.211 113.771C262.146 111.038 263.664 107.799 263.664 103.952C263.664 98.9926 261.438 95.1462 256.883 92.4133C260.021 89.8828 261.539 86.6438 261.539 82.6962C261.539 78.9511 260.122 75.8133 257.288 73.384C254.454 70.8535 250.911 69.6389 246.66 69.6389H223.381V117.819H248.077C252.531 117.617 256.276 116.301 259.211 113.771ZM232.591 78.0401H246.66C248.178 78.0401 249.393 78.5462 250.405 79.5584C251.417 80.5706 251.923 81.7853 251.923 83.3036C251.923 84.8218 251.417 86.1377 250.405 87.1499C249.393 88.1621 248.178 88.6682 246.66 88.6682H232.591V78.0401ZM232.591 97.1706H248.077C249.798 97.1706 251.215 97.7779 252.328 98.8913C253.442 100.005 254.049 101.422 254.049 103.143C254.049 104.863 253.442 106.28 252.328 107.394C251.215 108.507 249.798 109.115 248.077 109.115H232.591V97.1706Z" fill="#191919"/>
<path d="M207.693 85.9355H142.105V95.1465H207.693V85.9355Z" fill="#191919"/>
</svg>
