<svg width="88" height="88" viewBox="0 0 88 88" fill="none" xmlns="http://www.w3.org/2000/svg">
<path d="M44.1558 4.58789C31.1264 4.58789 18.9498 11.0291 11.5969 21.8232C7.12629 28.3526 4.77344 36.0291 4.77344 43.9702C4.77344 51.9114 7.12629 59.5879 11.5969 66.1173C18.9498 76.9114 31.1264 83.3526 44.1558 83.3526C57.1852 83.3526 69.3616 76.9114 76.7145 66.1173C81.1851 59.5879 83.5381 51.9114 83.5381 43.9702C83.5381 36.0291 81.1851 28.3526 76.7145 21.8232C69.3616 11.0291 57.2146 4.58789 44.1558 4.58789ZM70.0676 20.8232H59.744C58.3911 16.882 56.7146 13.5585 54.7734 10.9408C60.6558 12.8232 65.9499 16.2349 70.0676 20.8232ZM29.744 41.6761C29.9205 35.9408 30.7146 30.382 32.0675 25.4702H56.2733C57.6263 30.382 58.4205 35.9408 58.597 41.6761H29.744ZM58.597 46.2938C58.4205 52.0291 57.6263 57.5879 56.2733 62.4996H32.0381C30.6851 57.5879 29.891 52.0291 29.7146 46.2938H58.597ZM44.1558 9.23495C48.0381 9.23495 51.9499 13.5291 54.744 20.8232H33.5675C36.3911 13.5291 40.3028 9.23495 44.1558 9.23495ZM33.5675 10.9408C31.6264 13.5585 29.9205 16.882 28.597 20.8232H18.2734C22.3911 16.2349 27.6558 12.8232 33.5675 10.9408ZM14.7734 25.4408H27.2146C25.9499 30.4114 25.2439 35.9702 25.0969 41.6467H9.47932C9.86167 35.9114 11.6852 30.3526 14.7734 25.4408ZM14.7734 62.5291C11.6852 57.6467 9.86167 52.0879 9.47932 46.3232H25.0969C25.2733 52.0291 25.9793 57.5879 27.2146 62.5291H14.7734ZM18.2734 67.1467H28.597C29.9499 71.0879 31.6264 74.4114 33.5675 77.0291C27.6558 75.1467 22.3911 71.7349 18.2734 67.1467ZM44.1558 78.7349C40.2734 78.7349 36.3616 74.4408 33.5675 67.1467H54.744C51.9499 74.4408 48.0381 78.7349 44.1558 78.7349ZM54.7734 77.0585C56.7146 74.4702 58.4205 71.1173 59.744 67.1761H70.0676C65.9499 71.7349 60.6558 75.1467 54.7734 77.0585ZM73.5675 62.5291H61.1263C62.391 57.5585 63.0969 51.9996 63.244 46.3232H78.8616C78.4499 52.0879 76.6558 57.6467 73.5675 62.5291ZM63.244 41.6761C63.0675 35.9702 62.3616 30.4114 61.1263 25.4702H73.5675C76.6558 30.3526 78.4793 35.9114 78.8616 41.6761H63.244Z" fill="#FF5941"/>
<path d="M44.1543 84C30.919 84 18.5367 77.4412 11.0955 66.5C6.56609 59.8529 4.1543 52.0882 4.1543 44C4.1543 35.9118 6.56609 28.1471 11.0955 21.5C18.5661 10.5294 30.919 4 44.1543 4C57.3896 4 69.7719 10.5588 77.2131 21.5C81.7425 28.1471 84.1543 35.9118 84.1543 44C84.1543 52.0882 81.7425 59.8529 77.2131 66.5C69.7719 77.4412 57.419 84 44.1543 84ZM44.1543 5.23529C31.3308 5.23529 19.3602 11.5882 12.1249 22.2059C7.71315 28.6471 5.3895 36.1765 5.3895 44C5.3895 51.8235 7.71315 59.3529 12.1249 65.7941C19.3602 76.4118 31.3308 82.7647 44.1543 82.7647C56.9778 82.7647 68.9484 76.4118 76.1837 65.7941C80.5955 59.3529 82.9189 51.8235 82.9189 44C82.9189 36.1765 80.5955 28.6471 76.1837 22.2059C68.9778 11.5588 57.0072 5.23529 44.1543 5.23529ZM44.1543 79.3824C39.9778 79.3824 35.919 75 32.9778 67.3824L32.6543 66.5294H55.6543L55.3308 67.3824C52.419 75 48.3308 79.3824 44.1543 79.3824ZM34.5072 67.7941C37.1542 74.2941 40.7426 78.1177 44.1837 78.1177C47.6249 78.1177 51.1837 74.2647 53.8602 67.7941H34.5072ZM53.0954 78.2647L54.2719 76.6765C56.1837 74.1176 57.8308 70.8529 59.1543 66.9706L59.3014 66.5588H71.4778L70.5366 67.6176C66.3601 72.2647 60.9778 75.7647 54.9778 77.6765L53.0954 78.2647ZM60.2132 67.7941C59.1249 70.8529 57.8601 73.5588 56.4189 75.8235C61.0366 74.0588 65.213 71.2941 68.6248 67.7941H60.2132ZM35.2132 78.2353L33.3601 77.6471C27.3601 75.7059 21.9778 72.2353 17.8013 67.5882L16.8601 66.5294H29.0367L29.1837 66.9412C30.5073 70.7941 32.1542 74.0588 34.066 76.6765L35.2132 78.2353ZM19.7131 67.7941C23.1543 71.2941 27.3308 74.0588 31.9484 75.8235C30.4778 73.5294 29.2131 70.8529 28.1249 67.7941H19.7131ZM73.9189 63.1471H60.3013L60.5073 62.3529C61.7426 57.4706 62.4483 51.9118 62.5954 46.2647L62.6248 45.6471H79.5366L79.4779 46.3235C79.0661 52.1765 77.2131 57.8824 74.0954 62.8235L73.9189 63.1471ZM61.919 61.8824H73.2131C76.0072 57.3824 77.6837 52.2059 78.1543 46.9118H63.8307C63.6837 52.1765 63.0072 57.2941 61.919 61.8824ZM56.7719 63.1471H31.566L31.4484 62.6765C30.066 57.6765 29.2719 52 29.0954 46.3235L29.066 45.6765H59.213L59.1837 46.3235C59.0367 52.0294 58.2132 57.6765 56.8308 62.6765L56.7719 63.1471ZM32.5367 61.8824H55.8014C57.0073 57.2647 57.7719 52.1176 57.9484 46.9118H30.3895C30.566 52.1471 31.3014 57.2941 32.5367 61.8824ZM28.0073 63.1471H14.419L14.2425 62.8529C11.0954 57.8529 9.24253 52.1471 8.86018 46.3529L8.83074 45.6765H25.7131L25.7425 46.2941C25.8896 51.9412 26.6249 57.5 27.8308 62.3824L28.0073 63.1471ZM15.1248 61.8824H26.4189C25.3307 57.2941 24.6836 52.1471 24.5072 46.9118H10.1837C10.5955 52.2059 12.3013 57.3529 15.1248 61.8824ZM79.5072 42.2941H62.6248L62.5954 41.6765C62.4483 36.0294 61.7132 30.4706 60.5073 25.5882L60.3013 24.8235H73.8896L74.066 25.1176C77.213 30.1176 79.0661 35.8235 79.4484 41.6176L79.5072 42.2941ZM63.8307 41.0294H78.1543C77.7132 35.7647 76.0072 30.6176 73.2131 26.0588H61.919C62.9778 30.6765 63.6543 35.8235 63.8307 41.0294ZM59.213 42.2941H29.066L29.0954 41.6471C29.2425 35.9412 30.066 30.2941 31.4484 25.2941L31.566 24.8235H56.7425L56.8601 25.2941C58.2424 30.2941 59.0366 35.9706 59.213 41.6471V42.2941ZM30.3895 41.0294H57.9484C57.7425 35.8235 57.0073 30.6765 55.8014 26.0588H32.5661C31.3014 30.6765 30.566 35.8235 30.3895 41.0294ZM25.7131 42.2941H8.8013L8.86018 41.6176C9.27194 35.7647 11.1248 30.0588 14.2425 25.1176L14.419 24.8235H28.0073L27.8013 25.6176C26.566 30.5 25.8601 36.0588 25.7131 41.7059V42.2941ZM10.1543 41.0294H24.4779C24.6543 35.7941 25.3014 30.6471 26.3896 26.0588H15.0954C12.3307 30.5882 10.6249 35.7353 10.1543 41.0294ZM71.4778 21.4412H59.3014L59.1543 21.0294C57.8308 17.1765 56.1837 13.9118 54.2719 11.2941L53.0954 9.70588L54.9483 10.2941C60.9483 12.2353 66.3308 15.7059 70.5073 20.3529L71.4778 21.4412ZM60.2132 20.2059H68.6248C65.1836 16.7059 61.0073 13.9412 56.3896 12.1765C57.8602 14.4412 59.1249 17.1471 60.2132 20.2059ZM55.6543 21.4412H32.6543L32.9778 20.5882C35.8896 12.9706 39.9778 8.58824 44.1543 8.58824C48.3308 8.58824 52.3896 12.9706 55.3308 20.5882L55.6543 21.4412ZM34.5072 20.2059H53.8307C51.1837 13.7059 47.5955 9.88235 44.1543 9.88235C40.7131 9.88235 37.1542 13.7059 34.5072 20.2059ZM29.0072 21.4412H16.8308L17.7719 20.3824C21.9484 15.7353 27.3307 12.2353 33.3307 10.3235L35.1837 9.73529L34.0072 11.3235C32.0661 13.9118 30.419 17.1765 29.1249 21.0588L29.0072 21.4412ZM19.7131 20.2059H28.1249C29.1837 17.1471 30.4778 14.4706 31.9484 12.1765C27.3308 13.9412 23.1543 16.6765 19.7131 20.2059Z" fill="#FF5941"/>
</svg>
