<svg width="88" height="88" viewBox="0 0 88 88" fill="none" xmlns="http://www.w3.org/2000/svg">
<path d="M61.3736 8.12464C57.0099 3.56981 51.1491 0.989801 44.8425 0.862393C38.5676 0.734985 32.5794 3.06018 28.0246 7.4239C23.4698 11.7876 20.8898 17.6484 20.7624 23.9232L19.9023 63.1648C19.9023 63.1967 19.9023 63.1967 19.9023 63.2285H21.1764H22.4824H24.9031H26.209H27.515L28.375 24.0825C28.5661 15.2595 35.892 8.25205 44.715 8.44316C48.9832 8.53872 52.9647 10.2906 55.927 13.3802C58.8892 16.4699 60.4499 20.5151 60.3543 24.7832L59.3669 70.2041C59.2395 75.6827 54.7484 80.0464 49.3017 80.0464C49.238 80.0464 49.1425 80.0464 49.0788 80.0464C46.4032 79.9827 43.8869 78.8997 42.0395 76.9567C40.192 75.0138 39.2047 72.4656 39.2365 69.7901L40.1283 29.2425C40.1602 28.1277 40.6061 27.1084 41.4024 26.344C42.1987 25.5795 43.2499 25.1654 44.3328 25.1973C46.5943 25.261 48.4099 27.1403 48.378 29.4018L47.6136 63.8019C47.6136 63.8019 47.6136 63.8019 47.6136 63.8337H48.9195H50.2254H52.6462H53.9521H55.258L55.9906 29.5929C56.118 23.1269 50.9899 17.7758 44.5558 17.6484C41.4343 17.5847 38.4721 18.7313 36.2106 20.8973C33.9491 23.0632 32.675 25.9617 32.6113 29.0832L31.7195 69.6308C31.6239 74.3449 33.3439 78.8042 36.6246 82.2123C39.8735 85.6205 44.2691 87.5316 48.9832 87.659C49.1106 87.659 49.238 87.659 49.3973 87.659C53.9521 87.659 58.2521 85.939 61.5647 82.7538C64.9729 79.5049 66.9159 75.1093 67.0114 70.3952L67.9988 24.9743C68.0625 18.6676 65.7374 12.6795 61.3736 8.12464Z" fill="#FF5941"/>
</svg>
