<svg width="88" height="88" viewBox="0 0 88 88" fill="none" xmlns="http://www.w3.org/2000/svg">
<path d="M43.8173 84.5468C48.2458 84.5468 51.8359 80.9568 51.8359 76.5283C51.8359 72.0998 48.2458 68.5098 43.8173 68.5098C39.3888 68.5098 35.7988 72.0998 35.7988 76.5283C35.7988 80.9568 39.3888 84.5468 43.8173 84.5468Z" fill="#FF5941"/>
<path d="M43.8173 20.1913C48.2458 20.1913 51.8359 16.6013 51.8359 12.1728C51.8359 7.74431 48.2458 4.1543 43.8173 4.1543C39.3888 4.1543 35.7988 7.74431 35.7988 12.1728C35.7988 16.6013 39.3888 20.1913 43.8173 20.1913Z" fill="#FF5941"/>
<path d="M11.6259 52.3837C16.0544 52.3837 19.6444 48.7937 19.6444 44.3652C19.6444 39.9367 16.0544 36.3467 11.6259 36.3467C7.19742 36.3467 3.60742 39.9367 3.60742 44.3652C3.60742 48.7937 7.19742 52.3837 11.6259 52.3837Z" fill="#FF5941"/>
<path d="M75.9814 52.3837C80.4099 52.3837 83.9999 48.7937 83.9999 44.3652C83.9999 39.9367 80.4099 36.3467 75.9814 36.3467C71.5529 36.3467 67.9629 39.9367 67.9629 44.3652C67.9629 48.7937 71.5529 52.3837 75.9814 52.3837Z" fill="#FF5941"/>
<path d="M21.0595 75.1425C25.488 75.1425 29.078 71.5525 29.078 67.124C29.078 62.6955 25.488 59.1055 21.0595 59.1055C16.631 59.1055 13.041 62.6955 13.041 67.124C13.041 71.5525 16.631 75.1425 21.0595 75.1425Z" fill="#FF5941"/>
<path d="M66.5772 29.6249C71.0057 29.6249 74.5957 26.0349 74.5957 21.6064C74.5957 17.1779 71.0057 13.5879 66.5772 13.5879C62.1487 13.5879 58.5586 17.1779 58.5586 21.6064C58.5586 26.0349 62.1487 29.6249 66.5772 29.6249Z" fill="#FF5941"/>
<path d="M21.0595 29.6249C25.488 29.6249 29.078 26.0349 29.078 21.6064C29.078 17.1779 25.488 13.5879 21.0595 13.5879C16.631 13.5879 13.041 17.1779 13.041 21.6064C13.041 26.0349 16.631 29.6249 21.0595 29.6249Z" fill="#FF5941"/>
<path d="M66.5772 75.1425C71.0057 75.1425 74.5957 71.5525 74.5957 67.124C74.5957 62.6955 71.0057 59.1055 66.5772 59.1055C62.1487 59.1055 58.5586 62.6955 58.5586 67.124C58.5586 71.5525 62.1487 75.1425 66.5772 75.1425Z" fill="#FF5941"/>
</svg>
