<svg width="88" height="88" viewBox="0 0 88 88" fill="none" xmlns="http://www.w3.org/2000/svg">
<path d="M62.3276 75.9418C44.4994 86.2349 21.6063 80.1008 11.3132 62.2725C1.02004 44.4442 7.13054 21.5649 24.9825 11.2581C42.8344 0.951269 65.7037 7.09909 75.9969 24.9273C86.29 42.7556 80.1559 65.6486 62.3276 75.9418ZM28.4819 17.3192C13.992 25.685 9.0086 44.2832 17.3743 58.7731C25.7401 73.263 44.3383 78.2464 58.8282 69.8806C73.3181 61.5149 78.3015 42.9167 69.9357 28.4268C61.57 13.9369 42.9718 8.95348 28.4819 17.3192Z" fill="#FF5941"/>
<path d="M37.2169 26.7672C38.1811 28.5466 43.9304 38.0124 55.5937 36.8347C49.0052 46.0367 53.7297 55.3682 55.0147 57.5937L59.2054 55.1742C58.7853 54.5013 57.3017 51.8222 57.0355 48.4086C56.6532 43.2627 59.1591 38.6906 64.5271 34.8654L64.7974 34.6777L62.0909 29.9898L61.7931 30.1301C55.7964 32.8663 50.5976 32.7741 46.2949 29.8601C43.0126 27.6196 41.425 24.4324 41.4113 24.4087L40.8868 24.6484L37.2169 26.7672Z" fill="#FF5941"/>
<path d="M62.0626 29.8799L22.5469 52.6943L25.2261 57.3349L64.7418 34.5205L62.0626 29.8799Z" fill="#FF5941"/>
</svg>
