<svg width="88" height="88" viewBox="0 0 88 88" fill="none" xmlns="http://www.w3.org/2000/svg">
<path d="M44.3457 5C23.1766 5 6 22.5213 6 44.1787C6 56.2712 11.3713 67.0712 19.816 74.252C21.7692 75.918 23.8947 77.3829 26.1351 78.6467C31.5351 81.6339 37.7681 83.3286 44.3744 83.3286C50.9808 83.3286 57.7308 81.4616 63.3031 78.2158C65.4861 76.952 67.5255 75.4584 69.4213 73.8212C77.55 66.6403 82.6914 56.0127 82.6914 44.1787C82.7201 22.5213 65.5435 5 44.3457 5ZM69.5361 62.102C69.8234 44.1787 63.849 34.2117 63.849 34.2117L54.4851 43.8914H34.5224L25.1585 34.2117C25.1585 34.2117 18.4947 44.2648 19.299 62.1882C15.7947 57.0755 13.6979 50.8712 13.6979 44.1787C13.6979 26.8585 27.4851 12.8128 44.4032 12.8128C61.3212 12.8128 75.1084 26.8872 75.1084 44.1787C75.0797 50.8712 73.0117 57.018 69.5361 62.102Z" fill="#FF5941"/>
</svg>
