<svg width="88" height="88" viewBox="0 0 88 88" fill="none" xmlns="http://www.w3.org/2000/svg">
<path d="M43.5549 8C53.5357 8 61.942 11.3358 68.8004 18.0341C75.7122 24.6791 79.1549 32.7117 79.1549 42.1321C79.1549 47.9764 77.7938 52.7533 75.0717 56.5161C72.3497 60.2523 68.8804 62.147 64.6373 62.147C62.449 62.147 60.4209 61.5866 58.6062 60.4924C56.7648 59.3983 55.377 57.9305 54.3629 56.1158C51.1873 60.1188 47.0509 62.147 41.9804 62.147C37.337 62.147 33.4942 60.4657 30.4519 57.0765C27.3563 53.6073 25.8351 49.3641 25.8351 44.3738C25.8351 39.3834 27.383 35.1936 30.4519 31.751C33.4942 28.3351 37.337 26.6005 41.9804 26.6005C46.277 26.6005 49.933 28.0683 52.9486 31.0305V27.5079H59.5402V50.485C59.5402 51.9794 60.0472 53.2337 61.0613 54.2478C62.0754 55.2619 63.3297 55.7689 64.7974 55.7689C67.0925 55.7689 68.9873 54.5413 70.455 52.0862C71.9228 49.631 72.6432 46.4553 72.6432 42.6124C72.6432 34.9534 69.8145 28.3885 64.1837 22.9445C58.6329 17.4203 51.7477 14.6716 43.4749 14.6716C35.2288 14.6716 28.3169 17.5004 22.7661 23.1846C17.2153 28.8689 14.4666 35.9408 14.4666 44.4004C14.4666 52.8601 17.242 59.932 22.7661 65.6162C28.3169 71.3005 35.1487 74.1293 43.3147 74.1293C48.3318 74.1293 52.6016 73.0618 56.0976 70.9269L58.2059 76.958C53.6692 79.5199 48.5988 80.8009 42.9946 80.8009C33.0672 80.8009 24.7143 77.3316 17.9892 70.3665C11.2909 63.4013 7.95508 54.7548 7.95508 44.4271C7.95508 34.0461 11.3443 25.3996 18.1494 18.4878C24.9545 11.4693 33.414 8 43.5549 8ZM42.7543 55.3953C45.6365 55.3953 48.065 54.3545 50.0398 52.273C51.9612 50.1381 52.9486 47.4961 52.9486 44.4004C52.9486 41.2514 51.9879 38.6362 50.0398 36.608C48.1184 34.473 45.6631 33.4056 42.7543 33.4056C39.8722 33.4056 37.4704 34.473 35.5489 36.608C33.6275 38.6362 32.6401 41.2514 32.6401 44.4004C32.6401 47.4961 33.6008 50.1381 35.5489 52.273C37.4971 54.3545 39.8988 55.3953 42.7543 55.3953Z" fill="#FF5941"/>
</svg>
