<svg width="96" height="47" viewBox="0 0 96 47" fill="none" xmlns="http://www.w3.org/2000/svg">
<g clip-path="url(#clip0_1_7020)">
<path d="M24.9609 -0.0158691H29.3769V27.0477H24.9609V-0.0158691Z" fill="#FEFEFE"/>
<path d="M44.7366 18.4717C44.7366 22.6646 41.2806 23.0458 40.1286 23.0458C37.4406 23.0458 37.0566 20.5682 37.0566 19.2341V8.75171H32.6406V19.0435C32.6406 21.5211 33.4086 23.8082 34.9446 25.1423C36.2886 26.4764 38.0166 27.0482 40.1286 27.0482C41.6646 27.0482 43.5846 26.667 44.7366 25.5235V27.0482H49.1526V8.75171H44.7366V18.4717Z" fill="#FEFEFE"/>
<path d="M57.7933 2.07983H53.3773V8.75042H50.1133V12.9434H53.3773V27.0469H57.7933V12.9434H61.0573V8.75042H57.7933V2.07983Z" fill="#FEFEFE"/>
<path d="M74.8802 21.5214C73.9202 22.2838 72.5762 22.8556 71.2322 22.8556C68.1602 22.8556 66.0482 20.5685 66.0482 17.5191C66.0482 14.4697 68.1602 12.3732 71.2322 12.3732C72.5762 12.3732 73.9202 12.7544 74.8802 13.7073L75.4562 14.2791L78.5282 11.4203L77.7602 10.8485C76.0322 9.32379 73.7282 8.37085 71.2322 8.37085C65.8562 8.37085 61.8242 12.3732 61.8242 17.7097C61.8242 23.0461 65.8562 27.0485 71.2322 27.0485C73.7282 27.0485 76.0322 26.0956 77.7602 24.5708L78.5282 23.9991L75.4562 20.9497L74.8802 21.5214Z" fill="#FEFEFE"/>
<path d="M94.0806 10.2759C92.7366 8.94178 91.3926 8.37002 89.2806 8.37002C87.7446 8.37002 86.2086 8.75119 85.0566 9.89472V-0.0158691H80.6406V27.0477H85.0566V16.9465C85.0566 12.7535 87.9366 12.3724 89.0886 12.3724C91.7766 12.3724 91.5846 14.85 91.5846 16.1841V26.8571H96.0006V16.3747C96.0006 13.8971 95.4246 11.61 94.0806 10.2759Z" fill="#FEFEFE"/>
<path d="M18.816 20.378C17.28 21.9027 14.976 22.8556 12.48 22.8556C7.68 22.8556 4.224 19.0439 4.224 13.898C4.224 8.7521 7.68 4.94033 12.672 4.94033C14.976 4.94033 17.28 5.89327 19.008 7.60857L19.584 8.18033L22.464 5.32151L21.888 4.74974C19.392 2.2721 16.128 0.937978 12.672 0.937978C5.376 0.74739 0 6.46504 0 13.898C0 21.3309 5.376 27.0486 12.48 27.0486C15.936 27.0486 19.392 25.7144 21.696 23.2368L22.272 22.665L19.392 19.8062L18.816 20.378Z" fill="#FEFEFE"/>
</g>
<path d="M7.03047 34.8368C7.28485 33.8302 8.71515 33.8302 8.96953 34.8368L9.03278 35.0872C9.18546 35.6914 9.84765 36.0103 10.4153 35.7529L10.6504 35.6463C11.5961 35.2175 12.4878 36.3358 11.8594 37.1623L11.7031 37.3678C11.3259 37.8639 11.4894 38.5805 12.0446 38.8638L12.2745 38.9812C13.1994 39.4532 12.8811 40.8476 11.843 40.8716L11.5849 40.8776C10.9619 40.892 10.5036 41.4666 10.6282 42.0772L10.6798 42.3302C10.8874 43.3476 9.59879 43.9682 8.93282 43.1715L8.76722 42.9735C8.36749 42.4953 7.63251 42.4953 7.23278 42.9735L7.06718 43.1715C6.40121 43.9682 5.11256 43.3476 5.32016 42.3302L5.37178 42.0772C5.49638 41.4666 5.03813 40.892 4.41508 40.8776L4.15695 40.8716C3.1189 40.8476 2.80063 39.4532 3.72547 38.9812L3.95544 38.8638C4.51055 38.5805 4.6741 37.8639 4.29689 37.3678L4.14062 37.1623C3.51216 36.3358 4.40394 35.2175 5.34959 35.6463L5.58474 35.7529C6.15235 36.0103 6.81454 35.6914 6.96722 35.0872L7.03047 34.8368Z" fill="#FF5941"/>
<path d="M27.0305 34.8368C27.2849 33.8302 28.7151 33.8302 28.9695 34.8368L29.0328 35.0872C29.1855 35.6914 29.8477 36.0103 30.4153 35.7529L30.6504 35.6463C31.5961 35.2175 32.4878 36.3358 31.8594 37.1623L31.7031 37.3678C31.3259 37.8639 31.4894 38.5805 32.0446 38.8638L32.2745 38.9812C33.1994 39.4532 32.8811 40.8476 31.843 40.8716L31.5849 40.8776C30.9619 40.892 30.5036 41.4666 30.6282 42.0772L30.6798 42.3302C30.8874 43.3476 29.5988 43.9682 28.9328 43.1715L28.7672 42.9735C28.3675 42.4953 27.6325 42.4953 27.2328 42.9735L27.0672 43.1715C26.4012 43.9682 25.1126 43.3476 25.3202 42.3302L25.3718 42.0772C25.4964 41.4666 25.0381 40.892 24.4151 40.8776L24.157 40.8716C23.1189 40.8476 22.8006 39.4532 23.7255 38.9812L23.9554 38.8638C24.5106 38.5805 24.6741 37.8639 24.2969 37.3678L24.1406 37.1623C23.5122 36.3358 24.4039 35.2175 25.3496 35.6463L25.5847 35.7529C26.1523 36.0103 26.8145 35.6914 26.9672 35.0872L27.0305 34.8368Z" fill="#FF5941"/>
<path d="M47.0305 34.8368C47.2849 33.8302 48.7151 33.8302 48.9695 34.8368L49.0328 35.0872C49.1855 35.6914 49.8477 36.0103 50.4153 35.7529L50.6504 35.6463C51.5961 35.2175 52.4878 36.3358 51.8594 37.1623L51.7031 37.3678C51.3259 37.8639 51.4894 38.5805 52.0446 38.8638L52.2745 38.9812C53.1994 39.4532 52.8811 40.8476 51.843 40.8716L51.5849 40.8776C50.9619 40.892 50.5036 41.4666 50.6282 42.0772L50.6798 42.3302C50.8874 43.3476 49.5988 43.9682 48.9328 43.1715L48.7672 42.9735C48.3675 42.4953 47.6325 42.4953 47.2328 42.9735L47.0672 43.1715C46.4012 43.9682 45.1126 43.3476 45.3202 42.3302L45.3718 42.0772C45.4964 41.4666 45.0381 40.892 44.4151 40.8776L44.157 40.8716C43.1189 40.8476 42.8006 39.4532 43.7255 38.9812L43.9554 38.8638C44.5106 38.5805 44.6741 37.8639 44.2969 37.3678L44.1406 37.1623C43.5122 36.3358 44.4039 35.2175 45.3496 35.6463L45.5847 35.7529C46.1523 36.0103 46.8145 35.6914 46.9672 35.0872L47.0305 34.8368Z" fill="#FF5941"/>
<path d="M67.0305 34.8368C67.2849 33.8302 68.7151 33.8302 68.9695 34.8368L69.0328 35.0872C69.1855 35.6914 69.8477 36.0103 70.4153 35.7529L70.6504 35.6463C71.5961 35.2175 72.4878 36.3358 71.8594 37.1623L71.7031 37.3678C71.3259 37.8639 71.4894 38.5805 72.0446 38.8638L72.2745 38.9812C73.1994 39.4532 72.8811 40.8476 71.843 40.8716L71.5849 40.8776C70.9619 40.892 70.5036 41.4666 70.6282 42.0772L70.6798 42.3302C70.8874 43.3476 69.5988 43.9682 68.9328 43.1715L68.7672 42.9735C68.3675 42.4953 67.6325 42.4953 67.2328 42.9735L67.0672 43.1715C66.4012 43.9682 65.1126 43.3476 65.3202 42.3302L65.3718 42.0772C65.4964 41.4666 65.0381 40.892 64.4151 40.8776L64.157 40.8716C63.1189 40.8476 62.8006 39.4532 63.7255 38.9812L63.9554 38.8638C64.5106 38.5805 64.6741 37.8639 64.2969 37.3678L64.1406 37.1623C63.5122 36.3358 64.4039 35.2175 65.3496 35.6463L65.5847 35.7529C66.1523 36.0103 66.8145 35.6914 66.9672 35.0872L67.0305 34.8368Z" fill="#FF5941"/>
<path d="M87.0305 34.8368C87.2849 33.8302 88.7151 33.8302 88.9695 34.8368L89.0328 35.0872C89.1855 35.6914 89.8477 36.0103 90.4153 35.7529L90.6504 35.6463C91.5961 35.2175 92.4878 36.3358 91.8594 37.1623L91.7031 37.3678C91.3259 37.8639 91.4894 38.5805 92.0446 38.8638L92.2745 38.9812C93.1994 39.4532 92.8811 40.8476 91.843 40.8716L91.5849 40.8776C90.9619 40.892 90.5036 41.4666 90.6282 42.0772L90.6798 42.3302C90.8874 43.3476 89.5988 43.9682 88.9328 43.1715L88.7672 42.9735C88.3675 42.4953 87.6325 42.4953 87.2328 42.9735L87.0672 43.1715C86.4012 43.9682 85.1126 43.3476 85.3202 42.3302L85.3718 42.0772C85.4964 41.4666 85.0381 40.892 84.4151 40.8776L84.157 40.8716C83.1189 40.8476 82.8006 39.4532 83.7255 38.9812L83.9554 38.8638C84.5106 38.5805 84.6741 37.8639 84.2969 37.3678L84.1406 37.1623C83.5122 36.3358 84.4039 35.2175 85.3496 35.6463L85.5847 35.7529C86.1523 36.0103 86.8145 35.6914 86.9672 35.0872L87.0305 34.8368Z" fill="#FF5941"/>
<defs>
<clipPath id="clip0_1_7020">
<rect width="96" height="27" fill="white"/>
</clipPath>
</defs>
</svg>
