<svg width="71" height="92" viewBox="0 0 71 92" fill="none" xmlns="http://www.w3.org/2000/svg">
<path d="M34.0679 69.2555C34.3252 71.8927 32.3633 74.2406 29.726 74.4979L11.844 76.1703C9.20677 76.4276 6.85896 74.4979 6.60166 71.8284C6.34437 69.1912 8.30624 66.8433 10.9435 66.586L28.8255 64.9136C31.4628 64.6563 33.8106 66.586 34.0679 69.2555Z" stroke="#191919" stroke-width="2.69867" stroke-miterlimit="10"/>
<path d="M32.073 79.2259C32.3303 81.8631 30.3684 84.2109 27.7312 84.4682L15.3167 85.6261C12.6794 85.8833 10.3316 83.9215 10.0743 81.2842C9.81702 78.6469 11.7789 76.2991 14.4162 76.0418L26.8306 74.884C29.4679 74.6267 31.8157 76.5886 32.073 79.2259Z" stroke="#191919" stroke-width="2.62315" stroke-miterlimit="10"/>
<path d="M12.5186 46.5818L27.8919 45.3918C30.5292 45.1345 32.877 47.0964 33.1343 49.7337C33.3916 52.3709 31.4297 54.7188 28.7924 54.976L12.7115 56.4877" stroke="#191919" stroke-width="2.53342" stroke-miterlimit="10"/>
<path d="M34.7754 59.3499C35.0327 61.9872 33.0708 64.335 30.4335 64.5923L9.07805 66.6185C6.44078 66.8758 4.09297 64.9139 3.83567 62.2767C3.57838 59.6394 5.54025 57.2916 8.17752 57.0343L29.533 55.0081C32.1703 54.783 34.5181 56.7127 34.7754 59.3499Z" stroke="#191919" stroke-width="2.53342" stroke-miterlimit="10"/>
<path d="M28.8897 84.339L59.6364 79.3218C61.5983 79.0002 63.2385 77.6494 63.9139 75.784C67.9663 64.6238 67.7734 51.7269 63.9783 40.406C63.2385 38.1546 61.1159 36.6752 58.7359 36.6752H48.2833C46.5144 36.0319 44.8741 35.1314 43.7163 33.6198C42.3012 31.7544 41.6579 29.5674 41.7223 26.9302L42.269 12.1679C42.3333 9.08033 39.889 6.28225 36.2869 6.02496C32.4918 5.7355 29.34 7.98682 29.0505 11.589L27.8605 35.6782C27.6997 38.6049 25.4484 40.9849 22.5217 41.2422L10.0107 42.593C6.15127 42.9467 3.32103 46.3881 3.70698 50.2153C4.06076 54.0747 7.50207 56.905 11.3293 56.519L31.0445 54.6215" stroke="#191919" stroke-width="2.53342" stroke-miterlimit="10"/>
<path d="M38.6018 15.3848C38.6018 17.1537 37.1545 18.6009 35.3856 18.6009C33.6167 18.6009 32.1694 17.1537 32.1694 15.3848" stroke="#191919" stroke-width="2.53342" stroke-miterlimit="10"/>
<path d="M37.9916 10.2715V12.6836" stroke="#191919" stroke-width="2.53342" stroke-miterlimit="10"/>
<path d="M32.8457 10.2715V12.6836" stroke="#191919" stroke-width="2.53342" stroke-miterlimit="10"/>
</svg>
