<svg width="125" height="180" viewBox="0 0 125 180" fill="none" xmlns="http://www.w3.org/2000/svg">
<path d="M110.579 80.0112L109.943 79.8699L113.265 22.1378C113.477 18.11 112.134 14.2235 109.449 11.185C106.763 8.14648 103.017 6.37989 98.9884 6.1679C90.6485 5.74392 83.5101 12.1036 83.086 20.4419L81.1777 52.1698L76.6543 13.3756C76.1596 9.34777 74.1806 5.74393 71.0002 3.27071C67.8197 0.726824 63.8618 -0.333128 59.8332 0.090853C55.8046 0.585497 52.2001 2.56407 49.7264 5.74393C47.182 8.92378 46.1218 12.8809 46.5459 16.9088L52.4121 67.2918L51.5639 64.1826C50.5038 60.2961 47.9594 57.0456 44.4256 55.067C40.8917 53.0884 36.8631 52.5938 32.9052 53.6538C29.0179 54.7137 25.7668 57.2576 23.7878 60.7908C22.7277 62.6987 22.0916 64.7479 21.8795 66.8678C18.5577 65.2425 14.7411 64.8186 11.1366 65.8079C3.0794 67.9984 -1.65597 76.3367 0.535024 84.3924L8.59222 113.647C8.80425 114.354 9.01628 114.99 9.29899 115.626C9.22831 116.262 9.15765 116.898 9.08697 117.534C8.94561 119.653 8.87493 121.844 8.94561 123.964C9.93509 153.784 33.9654 178.375 63.7911 179.929C64.8513 180 65.9114 180 66.9716 180C81.8845 180 95.9492 174.418 106.834 164.101C118.495 153.007 124.927 138.097 124.927 122.056L124.998 99.373C125.139 90.3281 119.131 82.4138 110.579 80.0112ZM89.3762 20.7952C89.6589 15.9901 93.7583 12.245 98.635 12.5276C100.967 12.6689 103.158 13.6582 104.713 15.4248C106.268 17.1914 107.046 19.382 106.975 21.7139L103.724 78.1033L86.4078 73.2982L89.3762 20.7952ZM54.8151 9.63042C56.2993 7.79317 58.349 6.66255 60.6813 6.3799C63.0137 6.09724 65.2753 6.73322 67.1129 8.21715C68.9505 9.70108 70.0814 11.7503 70.3641 14.0822L76.9371 70.6836L76.301 70.5423C72.4137 69.4117 68.3144 69.9063 64.7806 71.8142C62.8016 72.8742 61.1761 74.3581 59.9039 76.1247L52.9775 16.1315C52.6948 13.7996 53.3309 11.4677 54.8151 9.63042ZM34.6721 59.6601C35.4496 59.4482 36.227 59.3775 37.0045 59.3775C38.4887 59.3775 39.9729 59.7308 41.3158 60.5081C43.3654 61.6387 44.8496 63.5466 45.4151 65.8079L56.0166 104.461C57.2888 109.125 54.5324 113.93 49.8677 115.272C47.606 115.908 45.2737 115.626 43.224 114.424C41.1744 113.294 39.6902 111.386 39.1248 109.125L28.5232 70.4716C27.251 65.7372 30.0074 60.9321 34.6721 59.6601ZM6.82529 82.5551C5.5531 77.8913 8.30952 73.0862 12.9742 71.7436C13.7517 71.5316 14.5291 71.4609 15.3066 71.4609C16.7908 71.4609 18.275 71.8142 19.6179 72.5915C21.6675 73.7222 23.1517 75.6301 23.7172 77.8913L31.7744 107.146C33.0465 111.81 30.2901 116.615 25.6254 117.957C20.9607 119.229 16.1547 116.474 14.8118 111.81L6.82529 82.5551ZM118.707 121.915C118.707 136.189 112.982 149.544 102.593 159.366C92.2033 169.188 78.6333 174.206 64.2858 173.428C37.7819 172.015 16.3667 150.18 15.4479 123.611C15.4479 123.187 15.4479 122.833 15.4479 122.409C17.7803 123.823 20.466 124.6 23.2931 124.6C24.636 124.6 25.9788 124.459 27.3217 124.035C31.3503 122.904 34.6014 120.289 36.5097 116.898C37.5699 118.028 38.7714 119.017 40.1849 119.865C42.5173 121.208 45.0617 121.844 47.606 121.844C48.9489 121.844 50.2918 121.632 51.6346 121.279C59.6918 119.088 64.4272 110.75 62.2362 102.694L59.7625 93.7906C61.7415 96.5465 64.4979 98.5957 67.8197 99.5143L92.3447 107.358L90.083 116.474C86.8319 116.05 83.51 116.12 80.1882 116.827C66.4768 119.795 56.9354 132.514 57.9249 146.506C57.9956 147.707 58.1369 148.837 58.4196 150.039L64.6392 148.837C64.4979 147.919 64.3565 147 64.2858 146.082C63.5084 135.27 70.9295 125.377 81.5311 123.116C84.9236 122.409 88.3161 122.48 91.6379 123.328L94.7477 124.105L99.9072 103.118L69.6573 93.4373H69.5866C67.325 92.8013 65.4874 91.3174 64.3565 89.2681C63.2257 87.2189 62.943 84.8163 63.5791 82.6258C64.2152 80.3645 65.6994 78.5273 67.749 77.3967C69.7987 76.2661 72.2017 75.9834 74.4634 76.69L108.742 86.2296C114.608 87.8549 118.637 93.2253 118.637 99.3023L118.707 121.915Z" fill="#191919"/>
</svg>
