<svg width="128" height="180" viewBox="0 0 128 180" fill="none" xmlns="http://www.w3.org/2000/svg">
<path d="M17.9296 117.947L18.428 117.985L18.4666 117.487C18.5351 116.603 18.6034 115.722 18.6717 114.908L18.7115 114.434L18.2398 114.371L12.1487 113.555L11.6218 113.485L11.5836 114.015C11.5501 114.481 11.4997 114.966 11.4482 115.46L11.4477 115.464C11.3967 115.954 11.3447 116.453 11.3099 116.937L11.2742 117.433L11.7701 117.471L17.9296 117.947Z" fill="#FEFEFE" stroke="#FEFEFE"/>
<path d="M34.3907 110.72L34.3906 110.72L34.3928 110.727C35.5221 114.581 37.9963 117.816 41.5363 119.786C43.8087 121.124 46.3596 121.755 48.9711 121.755C50.3026 121.755 51.7183 121.616 53.005 121.261L53.0108 121.259C56.8924 120.138 60.1514 117.681 62.1362 114.162C64.1174 110.649 64.6131 106.572 63.5516 102.708L63.5514 102.707L53.2859 65.5396C51.0902 57.5229 42.7371 52.8196 34.6739 54.9965L34.6739 54.9964L34.6655 54.9989C30.7839 56.12 27.5249 58.5775 25.5401 62.0965C23.5589 65.6091 23.0632 69.6861 24.1247 73.5504L24.1248 73.5511L34.3907 110.72ZM30.9745 71.5861L30.9736 71.5829C30.3976 69.5495 30.7131 67.4441 31.749 65.5781C32.7769 63.7943 34.5141 62.4502 36.5793 61.873C37.277 61.6843 37.9828 61.6191 38.7052 61.6191C40.1197 61.6191 41.4734 62.002 42.6359 62.6426C44.4342 63.6638 45.7872 65.3889 46.3679 67.4371C46.3681 67.4376 46.3682 67.4382 46.3684 67.4387L56.6333 104.604L56.6342 104.607C57.2102 106.641 56.8947 108.746 55.8588 110.612C54.8306 112.396 53.0926 113.741 51.0266 114.318C48.9755 114.891 46.8521 114.577 44.9712 113.547C43.1732 112.526 41.8205 110.801 41.2399 108.753C41.2397 108.752 41.2396 108.752 41.2395 108.751L30.9745 71.5861Z" fill="#FEFEFE" stroke="#FEFEFE"/>
<path d="M55.8654 91.5509L55.9244 92.0543L56.427 91.9884L60.0543 91.5127L60.5407 91.449L60.4861 90.9614L60.1996 88.4013L62.1657 88.1844L62.6657 88.1293L62.6075 87.6296L54.6686 19.476L54.6686 19.476L54.6682 19.4733C54.4108 17.3647 54.9885 15.3264 56.3392 13.666C57.6941 12.0006 59.5608 10.9776 61.6915 10.7212C63.8185 10.4652 65.8739 11.0399 67.5469 12.3815C69.2245 13.7268 70.2534 15.5788 70.5115 17.6909C70.5115 17.6912 70.5115 17.6916 70.5116 17.6919L77.2868 74.8359L77.3453 75.329L77.8388 75.2739L83.9299 74.5944L84.4296 74.5387L84.371 74.0393L77.664 16.8256L77.6636 16.8225C77.1683 12.8179 75.1846 9.30236 72.0033 6.77551C68.8192 4.24645 64.8529 3.12105 60.8184 3.61298C56.7881 4.10439 53.2482 6.07258 50.7028 9.23157C48.1553 12.3932 47.0206 16.3328 47.516 20.3411C47.5161 20.3417 47.5161 20.3422 47.5162 20.3427L55.8654 91.5509Z" fill="#FEFEFE" stroke="#FEFEFE"/>
<path d="M109.17 83.1578L109.669 83.1853L109.697 82.6866L112.913 25.4795C112.913 25.4783 112.913 25.4772 112.914 25.476C113.196 21.3924 111.775 17.5942 109.092 14.5802C106.401 11.5563 102.648 9.80003 98.6177 9.58898C90.3374 9.0981 83.1177 15.4898 82.6918 23.7867C82.6918 23.7873 82.6918 23.7879 82.6917 23.7885L79.6122 76.5819L79.583 77.0826L80.0838 77.1102L86.2433 77.45L86.741 77.4774L86.77 76.9799L89.8497 24.1834C90.1071 19.8387 93.908 16.4474 98.2864 16.7028C100.424 16.8315 102.418 17.7304 103.828 19.3213L103.835 19.3292L103.842 19.3369C105.314 20.8618 106.022 22.8971 105.893 25.0067L105.893 25.0079L102.539 82.2895L102.51 82.7904L103.011 82.818L109.17 83.1578Z" fill="#FEFEFE" stroke="#FEFEFE"/>
<path d="M10.7792 113.369L10.7806 113.374C12.6916 120.05 18.7781 124.405 25.4282 124.405C26.7566 124.405 28.1095 124.267 29.4045 123.84C37.4648 121.656 42.2026 113.368 40.0088 105.358L40.0084 105.357L32.2068 77.227C32.2067 77.2266 32.2065 77.2262 32.2064 77.2258C30.0103 69.2099 21.6575 64.5071 13.5948 66.6839L13.5948 66.6839L13.5864 66.6863C9.70482 67.8074 6.44582 70.2649 4.46098 73.7839C2.47975 77.2966 1.98408 81.3736 3.04556 85.2378L3.04559 85.2379L10.7792 113.369ZM9.89527 83.273L9.89452 83.2704C9.31849 81.2369 9.634 79.1316 10.6699 77.2656C11.6978 75.4817 13.435 74.1376 15.5002 73.5604C16.1979 73.3717 16.9037 73.3065 17.6261 73.3065C19.0523 73.3065 20.4068 73.6273 21.6301 74.2649C23.4261 75.2865 24.7773 77.0104 25.3574 79.057C25.3575 79.0574 25.3576 79.0578 25.3577 79.0582L33.1587 107.186C33.1588 107.186 33.1588 107.186 33.1589 107.186C34.3169 111.404 31.8056 115.816 27.556 116.967C23.2994 118.119 18.8551 115.619 17.6976 111.405L17.6973 111.404L9.89527 83.273Z" fill="#FEFEFE" stroke="#FEFEFE"/>
<path d="M11.3432 116.436L11.8468 116.475L18.0063 116.951L18.5035 116.989L18.4664 117.487C18.3304 119.309 18.263 121.124 18.3305 122.935L18.3306 122.937C19.1434 148.223 39.6713 169.013 65.1485 170.359L65.149 170.359C78.9058 171.099 91.9127 166.323 101.874 156.971C111.834 147.621 117.32 134.91 117.32 121.323V121.321L117.389 99.5107C117.389 93.8911 113.637 88.925 108.174 87.4221L108.174 87.4219L74.9811 78.2487L74.9768 78.2475C70.7215 77.0313 66.2786 79.4646 65.0553 83.6801C64.4765 85.7249 64.733 87.8306 65.7645 89.6869C66.785 91.5232 68.4322 92.854 70.4615 93.4388H70.5379L70.6118 93.4623L99.9037 102.771L100.35 102.913L100.238 103.368L95.2416 123.549L95.1213 124.035L94.6358 123.914L91.6245 123.167L91.622 123.166C88.4802 122.37 85.2724 122.303 82.0611 122.967C72.0385 125.09 65.0238 134.38 65.7576 144.524C65.8244 145.384 65.958 146.249 66.0953 147.135L66.1692 147.612L65.6954 147.702L59.6728 148.858L59.1804 148.952L59.0873 148.459C58.8788 147.355 58.7403 146.186 58.6042 145.037L58.603 145.028L58.6016 145.016L58.6008 145.005C57.6248 131.299 67.0346 118.847 80.5527 115.941L80.5545 115.941C83.6715 115.282 86.7952 115.125 89.8634 115.532L91.83 107.661L68.4683 100.329C64.5824 99.2053 61.3959 96.676 59.4834 93.1618C57.5006 89.6443 57.0776 85.5649 58.2091 81.7032C59.3416 77.838 61.8916 74.6747 65.4267 72.7092C68.9678 70.7403 73.0741 70.3199 76.9614 71.442C76.9622 71.4422 76.9631 71.4425 76.964 71.4427L110.083 80.6144C110.083 80.6144 110.083 80.6144 110.083 80.6144C118.648 82.9845 124.548 90.7233 124.548 99.5786V99.5802L124.48 121.39L11.3432 116.436ZM11.3432 116.436L11.3094 116.94M11.3432 116.436L11.3094 116.94M11.3094 116.94C11.1718 118.99 11.1025 121.114 11.1717 123.174L11.3094 116.94ZM106.801 162.185L106.801 162.186C96.1684 172.125 82.4269 177.541 67.8597 177.541H67.852C66.8318 177.541 65.7925 177.541 64.7505 177.473C35.6825 175.963 12.1386 152.109 11.1717 123.174L106.801 162.185ZM106.801 162.185C118.194 151.491 124.479 136.954 124.48 121.392L106.801 162.185ZM102.216 157.336C112.277 147.891 117.82 135.048 117.82 121.323L65.1222 170.858C79.0153 171.605 92.1555 166.781 102.216 157.336Z" fill="#FEFEFE" stroke="#FEFEFE"/>
</svg>
