<svg width="71" height="92" viewBox="0 0 71 92" fill="none" xmlns="http://www.w3.org/2000/svg">
<path d="M36.493 22.393C36.2357 19.7557 38.1976 17.4079 40.8349 17.1506L58.7169 15.4782C61.3541 15.2209 63.702 17.1506 63.9593 19.82C64.2165 22.4573 62.2547 24.8051 59.6174 25.0624L41.7354 26.7348C39.0981 26.9921 36.7503 25.0624 36.493 22.393Z" stroke="#191919" stroke-width="2.69867" stroke-miterlimit="10"/>
<path d="M38.4879 12.4226C38.2306 9.7853 40.1925 7.43749 42.8297 7.1802L55.2442 6.02238C57.8815 5.76509 60.2293 7.72696 60.4866 10.3642C60.7439 13.0015 58.782 15.3493 56.1447 15.6066L43.7303 16.7644C41.093 17.0217 38.7452 15.0598 38.4879 12.4226Z" stroke="#191919" stroke-width="2.62315" stroke-miterlimit="10"/>
<path d="M58.0425 45.0666L42.6691 46.2566C40.0319 46.5139 37.684 44.552 37.4267 41.9148C37.1695 39.2775 39.1313 36.9297 41.7686 36.6724L57.8495 35.1608" stroke="#191919" stroke-width="2.53342" stroke-miterlimit="10"/>
<path d="M35.7852 32.3005C35.5279 29.6632 37.4898 27.3154 40.127 27.0581L61.4825 25.0319C64.1198 24.7746 66.4676 26.7365 66.7249 29.3737C66.9822 32.011 65.0203 34.3588 62.383 34.6161L41.0276 36.6423C38.3903 36.8674 36.0425 34.9377 35.7852 32.3005Z" stroke="#191919" stroke-width="2.53342" stroke-miterlimit="10"/>
<path d="M41.6712 7.30942L10.9245 12.3267C8.96263 12.6483 7.32238 13.9991 6.64699 15.8645C2.59459 27.0246 2.78756 39.9215 6.58265 51.2425C7.32238 53.4938 9.44506 54.9732 11.825 54.9732L22.2776 54.9732C24.0465 55.6165 25.6868 56.517 26.8446 58.0286C28.2597 59.894 28.903 62.081 28.8386 64.7183L28.2919 79.4806C28.2276 82.5681 30.6719 85.3662 34.274 85.6235C38.0691 85.9129 41.221 83.6616 41.5104 80.0595L42.7004 55.9703C42.8612 53.0435 45.1125 50.6636 48.0393 50.4063L60.5502 49.0555C64.4096 48.7017 67.2399 45.2604 66.8539 41.4331C66.5002 37.5737 63.0588 34.7435 59.2316 35.1294L39.5164 37.0269" stroke="#191919" stroke-width="2.53342" stroke-miterlimit="10"/>
<path d="M31.9592 80.6777C31.9592 78.9088 33.4065 77.4616 35.1754 77.4616C36.9443 77.4616 38.3916 78.9088 38.3916 80.6777" stroke="#191919" stroke-width="2.53342" stroke-miterlimit="10"/>
<path d="M32.5703 74.4609L32.5703 72.0488" stroke="#191919" stroke-width="2.53342" stroke-miterlimit="10"/>
<path d="M37.7158 74.4609L37.7158 72.0488" stroke="#191919" stroke-width="2.53342" stroke-miterlimit="10"/>
</svg>
