<svg width="151" height="152" viewBox="0 0 151 152" fill="none" xmlns="http://www.w3.org/2000/svg">
<path fill-rule="evenodd" clip-rule="evenodd" d="M75.685 151.168C63.1652 151.168 50.8017 148.033 39.8859 142.116C35.5431 139.765 31.3568 136.905 27.4835 133.691C10.2686 119.311 0.40918 98.19 0.40918 75.7763C0.40918 34.2012 34.1738 0.384766 75.685 0.384766C117.196 0.384766 151 34.2012 151 75.7763C151 97.6806 141.493 118.488 124.904 132.829C121.187 136.043 117.157 138.903 112.892 141.332C101.585 147.759 88.7526 151.168 75.7241 151.168H75.685ZM75.7241 15.706H75.7197L73.4439 15.7489C44.2705 16.8456 20.3764 38.9357 16.3716 67.3308C15.9851 70.0785 15.7852 72.8851 15.7852 75.7371C15.7852 87.8808 19.4217 99.5937 26.3037 109.623C25.5227 89.6897 29.7061 74.7888 33.2615 65.9262C35.5907 60.0996 37.6518 56.8717 37.872 56.5268C37.8788 56.5162 37.8838 56.5083 37.8871 56.5031C37.8887 56.5005 37.8899 56.4986 37.8906 56.4974L38.008 56.3015L38.1645 56.4582L56.4748 74.9926H95.4429L113.91 56.3015L114.027 56.4974C114.027 56.4974 125.647 75.8155 125.217 109.475C130.835 101.275 134.267 91.941 135.318 82.1649C135.544 80.0408 135.659 77.8959 135.659 75.7373C135.659 42.6276 108.744 15.6694 75.6852 15.667L75.7241 15.706Z" fill="#FEFEFE"/>
</svg>
