<svg width="145" height="41" viewBox="0 0 145 41" fill="none" xmlns="http://www.w3.org/2000/svg">
<path d="M9.47858 13.7787C11.7644 13.7787 13.7275 14.5625 15.359 16.1257V6.39258H18.8917V31.9165H15.359V30.0124C13.7275 31.5799 11.7688 32.3593 9.47858 32.3593C7.00704 32.3593 4.93784 31.4737 3.25773 29.7024C1.60414 27.9577 0.777344 25.7436 0.777344 23.0646C0.777344 20.3856 1.60414 18.1759 3.25773 16.4268C4.93342 14.6555 7.00704 13.7743 9.47858 13.7743V13.7787ZM9.84998 17.3168C8.33345 17.3168 7.05125 17.8748 6.01223 18.9863C4.96879 20.0534 4.44707 21.4129 4.44707 23.069C4.44707 24.7252 4.96879 26.0757 6.01223 27.1872C7.07778 28.2765 8.35556 28.8212 9.84998 28.8212C11.3444 28.8212 12.6796 28.2765 13.7231 27.1872C14.7665 26.0757 15.2882 24.703 15.2882 23.069C15.2882 21.435 14.7665 20.0534 13.7231 18.9863C12.6796 17.8748 11.3886 17.3168 9.84998 17.3168Z" fill="#fff"/>
<path d="M22.1729 11.6008C21.744 11.1492 21.5273 10.5912 21.5273 9.93143C21.5273 9.27163 21.744 8.71811 22.1729 8.26201C22.6238 7.80591 23.1809 7.58008 23.8397 7.58008C24.4985 7.58008 25.0512 7.80591 25.5066 8.26201C25.9575 8.71811 26.1875 9.27163 26.1875 9.93143C26.1875 10.5912 25.962 11.1447 25.5066 11.6008C25.0512 12.0569 24.4985 12.2828 23.8397 12.2828C23.1809 12.2828 22.6283 12.0569 22.1729 11.6008ZM25.6038 31.9172H22.0712V14.2223H25.6038V31.9172Z" fill="#fff"/>
<path d="M36.5372 13.7793C38.823 13.7793 40.7861 14.5631 42.4176 16.1262V14.2221H45.9503V31.306C45.9503 33.7769 45.0881 35.8448 43.3682 37.5009C41.6483 39.1792 39.5614 40.0206 37.1164 40.0206C35.3036 40.0206 33.6058 39.5556 32.0185 38.6257C30.4755 37.7179 29.379 36.5268 28.7202 35.0522L32.2882 33.9983C32.6729 34.7245 33.2963 35.3179 34.1585 35.7872C35.0206 36.2522 35.958 36.4825 36.9793 36.4825C38.4958 36.4825 39.7869 35.9821 40.8524 34.9858C41.8959 34.0116 42.4176 32.785 42.4176 31.3104V30.0174C40.7861 31.5849 38.8274 32.3643 36.5372 32.3643C34.0656 32.3643 31.9964 31.4787 30.3163 29.7074C28.6627 27.9627 27.8359 25.7486 27.8359 23.0696C27.8359 20.3905 28.6627 18.1809 30.3163 16.4318C31.992 14.6605 34.0656 13.7793 36.5372 13.7793ZM36.9086 17.3174C35.392 17.3174 34.1098 17.8753 33.0708 18.9868C32.0274 20.054 31.5057 21.4134 31.5057 23.0696C31.5057 24.7257 32.0274 26.0763 33.0708 27.1878C34.1364 28.2771 35.4142 28.8218 36.9086 28.8218C38.403 28.8218 39.7382 28.2771 40.7817 27.1878C41.8251 26.0763 42.3468 24.7036 42.3468 23.0696C42.3468 21.4356 41.8251 20.054 40.7817 18.9868C39.7382 17.8753 38.4472 17.3174 36.9086 17.3174Z" fill="#fff"/>
<path d="M48.6338 11.6008C48.2049 11.1492 47.9883 10.5912 47.9883 9.93143C47.9883 9.27163 48.2049 8.71811 48.6338 8.26201C49.0848 7.80591 49.6419 7.58008 50.3007 7.58008C50.9594 7.58008 51.5121 7.80591 51.9675 8.26201C52.4185 8.71811 52.6484 9.27163 52.6484 9.93143C52.6484 10.5912 52.4229 11.1447 51.9675 11.6008C51.5121 12.0569 50.9594 12.2828 50.3007 12.2828C49.6419 12.2828 49.0892 12.0569 48.6338 11.6008ZM52.0648 31.9172H48.5321V14.2223H52.0648V31.9172Z" fill="#fff"/>
<path d="M53.9658 17.317V14.2217H56.6496V10.7146H60.1823V14.2217H64.8733V17.317H60.1823V26.0316C60.1823 26.7357 60.4077 27.3246 60.8631 27.8029C61.3141 28.2811 61.8845 28.5158 62.5609 28.5158H64.8733V31.9211H62.2912C60.704 31.9211 59.3687 31.4118 58.2811 30.3889C57.1934 29.3217 56.6496 28.0287 56.6496 26.5098V17.3214H53.9658V17.317Z" fill="#fff"/>
<path d="M74.5919 13.7779C76.8777 13.7779 78.8408 14.5616 80.4723 16.1248V14.2207H84.0049V31.9156H80.4723V30.0115C78.8408 31.5791 76.8821 32.3584 74.5919 32.3584C72.1203 32.3584 70.0511 31.4728 68.371 29.7015C66.7174 27.9568 65.8906 25.7428 65.8906 23.0637C65.8906 20.3847 66.7174 18.175 68.371 16.4259C70.0467 14.6546 72.1203 13.7734 74.5919 13.7734V13.7779ZM74.9633 17.316C73.4467 17.316 72.1645 17.8739 71.1255 18.9854C70.0821 20.0526 69.5604 21.412 69.5604 23.0681C69.5604 24.7243 70.0821 26.0749 71.1255 27.1863C72.1911 28.2757 73.4688 28.8203 74.9633 28.8203C76.4577 28.8203 77.7929 28.2757 78.8364 27.1863C79.8798 26.0749 80.4015 24.7021 80.4015 23.0681C80.4015 21.4342 79.8798 20.0526 78.8364 18.9854C77.7929 17.8739 76.5019 17.316 74.9633 17.316Z" fill="#fff"/>
<path d="M90.4956 31.9165H86.9629V6.39258H90.4956V31.9165Z" fill="#fff"/>
<path d="M93.6519 31.9165V6.39258H97.1845V22.3871L103.843 14.2171H108.158L101.226 22.7591L108.906 31.9121H104.555L97.1801 23.131V31.9121H93.6475L93.6519 31.9165Z" fill="#fff"/>
<path d="M110.37 11.6008C109.941 11.1492 109.725 10.5912 109.725 9.93143C109.725 9.27163 109.941 8.71811 110.37 8.26201C110.821 7.80591 111.378 7.58008 112.037 7.58008C112.696 7.58008 113.248 7.80591 113.704 8.26201C114.155 8.71811 114.385 9.27163 114.385 9.93143C114.385 10.5912 114.159 11.1447 113.704 11.6008C113.248 12.0569 112.696 12.2828 112.037 12.2828C111.378 12.2828 110.826 12.0569 110.37 11.6008ZM113.801 31.9172H110.268V14.2223H113.801V31.9172Z" fill="#fff"/>
<path d="M116.01 17.317V14.2217H118.694V10.7146H122.226V14.2217H126.917V17.317H122.226V26.0316C122.226 26.7357 122.452 27.3246 122.907 27.8029C123.358 28.2811 123.928 28.5158 124.605 28.5158H126.917V31.9211H124.335C122.748 31.9211 121.413 31.4118 120.325 30.3889C119.237 29.3217 118.694 28.0287 118.694 26.5098V17.3214H116.01V17.317Z" fill="#fff"/>
<path fill-rule="evenodd" clip-rule="evenodd" d="M136.489 17.2367C135.074 17.2367 133.677 16.8825 132.444 16.2138C131.953 15.9481 131.48 15.6249 131.042 15.2618C129.097 13.6367 127.982 11.2499 127.982 8.717C127.982 4.01875 131.798 0.197266 136.489 0.197266C141.18 0.197266 145 4.01875 145 8.717C145 11.1923 143.926 13.5437 142.051 15.1644C141.631 15.5275 141.176 15.8507 140.694 16.1253C139.416 16.8515 137.966 17.2367 136.493 17.2367H136.489ZM136.493 1.92867H136.493L136 1.94651C132.62 2.19158 129.92 4.93328 129.73 8.33355C129.724 8.45903 129.72 8.5854 129.72 8.71257C129.72 10.085 130.131 11.4088 130.909 12.5423C130.826 10.4269 131.238 8.81302 131.621 7.79474C131.913 7.01594 132.189 6.58428 132.216 6.54168L132.218 6.53835L132.231 6.51621L132.249 6.53393L134.318 8.62843H138.722L140.809 6.51621L140.822 6.53835C140.822 6.53835 142.135 8.72143 142.086 12.5252C142.795 11.4915 143.196 10.2982 143.258 9.05399C143.264 8.94058 143.267 8.82675 143.267 8.71258C143.267 4.97089 140.225 1.92438 136.489 1.92425L136.493 1.92867Z" fill="#fff"/>
</svg>
