<svg width="18" height="18" viewBox="0 0 18 18" fill="none" xmlns="http://www.w3.org/2000/svg">
<path fill-rule="evenodd" clip-rule="evenodd" d="M9.48908 17.2367C8.07425 17.2367 6.6771 16.8825 5.44355 16.2138C4.95278 15.9481 4.4797 15.6249 4.04199 15.2618C2.0966 13.6367 0.982422 11.2499 0.982422 8.717C0.982422 4.01875 4.79804 0.197266 9.48908 0.197266C14.1801 0.197266 18.0002 4.01875 18.0002 8.717C18.0002 11.1923 16.9258 13.5437 15.0511 15.1644C14.6311 15.5275 14.1757 15.8507 13.6938 16.1253C12.416 16.8515 10.9658 17.2367 9.49349 17.2367H9.48908ZM9.49349 1.92867H9.49326L8.99971 1.94651C5.61955 2.19158 2.92037 4.93328 2.73048 8.33355C2.72353 8.45903 2.72002 8.5854 2.72002 8.71257C2.72002 10.085 3.13105 11.4088 3.90894 12.5423C3.826 10.4269 4.23781 8.81302 4.62103 7.79474C4.91314 7.01594 5.18876 6.58428 5.21596 6.54168L5.21807 6.53835L5.23133 6.51621L5.24902 6.53393L7.3182 8.62843H11.7218L13.8087 6.51621L13.822 6.53835C13.822 6.53835 15.1351 8.72143 15.0865 12.5252C15.7948 11.4915 16.1956 10.2982 16.2583 9.05399C16.2639 8.94058 16.2668 8.82675 16.2668 8.71258C16.2668 4.97089 13.225 1.92438 9.4891 1.92425L9.49349 1.92867Z" fill="#191919"/>
</svg>
