<svg width="127" height="35" viewBox="0 0 127 35" fill="none" xmlns="http://www.w3.org/2000/svg">
<path d="M9.47809 7.77875C11.7639 7.77875 13.727 8.56253 15.3585 10.1257V0.392578H18.8912V25.9165H15.3585V24.0124C13.727 25.5799 11.7684 26.3593 9.47809 26.3593C7.00655 26.3593 4.93736 25.4737 3.25724 23.7024C1.60365 21.9577 0.776855 19.7436 0.776855 17.0646C0.776855 14.3856 1.60365 12.1759 3.25724 10.4268C4.93293 8.65552 7.00655 7.77432 9.47809 7.77432V7.77875ZM9.84949 11.3168C8.33296 11.3168 7.05077 11.8748 6.01175 12.9863C4.96831 14.0534 4.44658 15.4129 4.44658 17.069C4.44658 18.7252 4.96831 20.0757 6.01175 21.1872C7.07729 22.2765 8.35507 22.8212 9.84949 22.8212C11.3439 22.8212 12.6792 22.2765 13.7226 21.1872C14.766 20.0757 15.2878 18.703 15.2878 17.069C15.2878 15.435 14.766 14.0534 13.7226 12.9863C12.6792 11.8748 11.3881 11.3168 9.84949 11.3168Z" fill="#191919"/>
<path d="M22.1724 5.60085C21.7435 5.14917 21.5269 4.59123 21.5269 3.93143C21.5269 3.27163 21.7435 2.71811 22.1724 2.26201C22.6234 1.80591 23.1804 1.58008 23.8392 1.58008C24.498 1.58008 25.0507 1.80591 25.5061 2.26201C25.9571 2.71811 26.187 3.27163 26.187 3.93143C26.187 4.59123 25.9615 5.14475 25.5061 5.60085C25.0507 6.05695 24.498 6.28278 23.8392 6.28278C23.1804 6.28278 22.6278 6.05695 22.1724 5.60085ZM25.6034 25.9172H22.0707V8.22232H25.6034V25.9172Z" fill="#191919"/>
<path d="M36.5367 7.7793C38.8225 7.7793 40.7856 8.56308 42.4171 10.1262V8.22211H45.9498V25.306C45.9498 27.7769 45.0876 29.8448 43.3677 31.5009C41.6478 33.1792 39.5609 34.0206 37.1159 34.0206C35.3031 34.0206 33.6053 33.5556 32.0181 32.6257C30.475 31.7179 29.3785 30.5268 28.7197 29.0522L32.2878 27.9983C32.6724 28.7245 33.2958 29.3179 34.158 29.7872C35.0202 30.2522 35.9575 30.4825 36.9788 30.4825C38.4953 30.4825 39.7864 29.9821 40.8519 28.9858C41.8954 28.0116 42.4171 26.785 42.4171 25.3104V24.0174C40.7856 25.5849 38.827 26.3643 36.5367 26.3643C34.0651 26.3643 31.9959 25.4787 30.3158 23.7074C28.6622 21.9627 27.8354 19.7486 27.8354 17.0696C27.8354 14.3905 28.6622 12.1809 30.3158 10.4318C31.9915 8.6605 34.0651 7.7793 36.5367 7.7793ZM36.9081 11.3174C35.3916 11.3174 34.1094 11.8753 33.0703 12.9868C32.0269 14.054 31.5052 15.4134 31.5052 17.0696C31.5052 18.7257 32.0269 20.0763 33.0703 21.1878C34.1359 22.2771 35.4137 22.8218 36.9081 22.8218C38.4025 22.8218 39.7378 22.2771 40.7812 21.1878C41.8246 20.0763 42.3464 18.7036 42.3464 17.0696C42.3464 15.4356 41.8246 14.054 40.7812 12.9868C39.7378 11.8753 38.4467 11.3174 36.9081 11.3174Z" fill="#191919"/>
<path d="M48.6338 5.60085C48.2049 5.14917 47.9883 4.59123 47.9883 3.93143C47.9883 3.27163 48.2049 2.71811 48.6338 2.26201C49.0848 1.80591 49.6419 1.58008 50.3007 1.58008C50.9594 1.58008 51.5121 1.80591 51.9675 2.26201C52.4185 2.71811 52.6484 3.27163 52.6484 3.93143C52.6484 4.59123 52.4229 5.14475 51.9675 5.60085C51.5121 6.05695 50.9594 6.28278 50.3007 6.28278C49.6419 6.28278 49.0892 6.05695 48.6338 5.60085ZM52.0648 25.9172H48.5321V8.22232H52.0648V25.9172Z" fill="#191919"/>
<path d="M53.9656 11.317V8.2217H56.6493V4.7146H60.182V8.2217H64.8731V11.317H60.182V20.0316C60.182 20.7357 60.4075 21.3246 60.8629 21.8029C61.3139 22.2811 61.8842 22.5158 62.5607 22.5158H64.8731V25.9211H62.291C60.7037 25.9211 59.3685 25.4118 58.2808 24.3889C57.1932 23.3217 56.6493 22.0287 56.6493 20.5098V11.3214H53.9656V11.317Z" fill="#191919"/>
<path d="M74.5914 7.77787C76.8772 7.77787 78.8403 8.56165 80.4718 10.1248V8.22068H84.0045V25.9156H80.4718V24.0115C78.8403 25.5791 76.8816 26.3584 74.5914 26.3584C72.1198 26.3584 70.0506 25.4728 68.3705 23.7015C66.7169 21.9568 65.8901 19.7428 65.8901 17.0637C65.8901 14.3847 66.7169 12.175 68.3705 10.4259C70.0462 8.65464 72.1198 7.77344 74.5914 7.77344V7.77787ZM74.9628 11.316C73.4462 11.316 72.164 11.8739 71.125 12.9854C70.0816 14.0526 69.5599 15.412 69.5599 17.0681C69.5599 18.7243 70.0816 20.0749 71.125 21.1863C72.1906 22.2757 73.4683 22.8203 74.9628 22.8203C76.4572 22.8203 77.7924 22.2757 78.8359 21.1863C79.8793 20.0749 80.401 18.7021 80.401 17.0681C80.401 15.4342 79.8793 14.0526 78.8359 12.9854C77.7924 11.8739 76.5014 11.316 74.9628 11.316Z" fill="#191919"/>
<path d="M90.4953 25.9165H86.9626V0.392578H90.4953V25.9165Z" fill="#191919"/>
<path d="M93.6515 25.9165V0.392578H97.1842V16.3871L103.843 8.21714H108.158L101.225 16.7591L108.905 25.9121H104.555L97.1798 17.131V25.9121H93.6471L93.6515 25.9165Z" fill="#191919"/>
<path d="M110.37 5.60085C109.941 5.14917 109.724 4.59123 109.724 3.93143C109.724 3.27163 109.941 2.71811 110.37 2.26201C110.821 1.80591 111.378 1.58008 112.036 1.58008C112.695 1.58008 113.248 1.80591 113.703 2.26201C114.154 2.71811 114.384 3.27163 114.384 3.93143C114.384 4.59123 114.159 5.14475 113.703 5.60085C113.248 6.05695 112.695 6.28278 112.036 6.28278C111.378 6.28278 110.825 6.05695 110.37 5.60085ZM113.801 25.9172H110.268V8.22232H113.801V25.9172Z" fill="#191919"/>
<path d="M116.009 11.317V8.2217H118.693V4.7146H122.225V8.2217H126.916V11.317H122.225V20.0316C122.225 20.7357 122.451 21.3246 122.906 21.8029C123.357 22.2811 123.928 22.5158 124.604 22.5158H126.916V25.9211H124.334C122.747 25.9211 121.412 25.4118 120.324 24.3889C119.237 23.3217 118.693 22.0287 118.693 20.5098V11.3214H116.009V11.317Z" fill="#191919"/>
</svg>
