<svg width="153" height="65" viewBox="0 0 153 65" fill="none" xmlns="http://www.w3.org/2000/svg">
<path d="M149.57 32.6328C149.57 36.1897 147.869 39.7981 144.334 43.3169C140.79 46.8452 135.534 50.1375 128.84 52.9561C115.462 58.5891 96.8067 62.1328 76.0703 62.1328C55.334 62.1328 36.6785 58.5891 23.3003 52.9561C16.6062 50.1375 11.3508 46.8452 7.80653 43.3169C4.27177 39.7981 2.57031 36.1897 2.57031 32.6328C2.57031 29.0759 4.27177 25.4675 7.80653 21.9487C11.3508 18.4205 16.6062 15.1281 23.3003 12.3095C36.6785 6.67657 55.334 3.13281 76.0703 3.13281C96.8067 3.13281 115.462 6.67657 128.84 12.3095C135.534 15.1281 140.79 18.4205 144.334 21.9487C147.869 25.4675 149.57 29.0759 149.57 32.6328Z" stroke="#191919" stroke-width="5"/>
<path d="M38.0249 43.6331H33.9929V18.4331H38.0249L47.6009 35.2451L57.1409 18.4331H61.2089V43.6331H57.1409V26.1011L48.9329 40.6451H46.2689L38.0249 26.1011V43.6331ZM74.8746 44.1011C72.0666 44.1011 69.7266 43.1651 67.8546 41.2931C65.9826 39.4211 65.0466 37.0811 65.0466 34.2731C65.0466 31.4651 65.9826 29.1251 67.8546 27.2531C69.7266 25.3811 72.0666 24.4451 74.8746 24.4451C77.6826 24.4451 80.0226 25.3811 81.8946 27.2531C83.7906 29.1251 84.7386 31.4651 84.7386 34.2731C84.7386 37.0811 83.7906 39.4211 81.8946 41.2931C80.0226 43.1651 77.6826 44.1011 74.8746 44.1011ZM74.8746 40.3571C76.6026 40.3571 78.0186 39.7811 79.1226 38.6291C80.2746 37.4531 80.8506 36.0011 80.8506 34.2731C80.8506 32.5451 80.2746 31.1051 79.1226 29.9531C78.0186 28.7771 76.6026 28.1891 74.8746 28.1891C73.1946 28.1891 71.7786 28.7771 70.6266 29.9531C69.4986 31.1291 68.9346 32.5691 68.9346 34.2731C68.9346 35.9771 69.4986 37.4291 70.6266 38.6291C71.7786 39.7811 73.1946 40.3571 74.8746 40.3571ZM92.1186 24.9131V27.6491C93.5346 25.5131 95.7546 24.4451 98.7786 24.4451V28.6211C98.3466 28.4291 97.8066 28.3331 97.1586 28.3331C95.7186 28.3331 94.5186 28.8011 93.5586 29.7371C92.5986 30.6251 92.1186 31.7771 92.1186 33.1931V43.6331H88.3746V24.9131H92.1186ZM119.431 35.6411H103.879C104.167 37.1051 104.875 38.3051 106.003 39.2411C107.155 40.1531 108.511 40.6091 110.071 40.6091C112.183 40.6091 113.839 39.8291 115.039 38.2691L118.711 39.3851C117.847 40.8491 116.647 42.0011 115.111 42.8411C113.599 43.6811 111.919 44.1011 110.071 44.1011C107.191 44.1011 104.803 43.1651 102.907 41.2931C100.987 39.4211 100.027 37.0811 100.027 34.2731C100.027 31.4891 100.951 29.1491 102.799 27.2531C104.671 25.3811 106.999 24.4451 109.783 24.4451C112.567 24.4451 114.871 25.3811 116.695 27.2531C118.567 29.1251 119.503 31.4651 119.503 34.2731C119.503 34.3691 119.479 34.8251 119.431 35.6411ZM103.915 32.6531H115.651C115.315 31.2611 114.595 30.1331 113.491 29.2691C112.387 28.3811 111.115 27.9371 109.675 27.9371C108.307 27.9371 107.083 28.3811 106.003 29.2691C104.947 30.1331 104.251 31.2611 103.915 32.6531Z" fill="#191919"/>
</svg> 
