<svg width="153" height="65" viewBox="0 0 153 65" fill="none" xmlns="http://www.w3.org/2000/svg">
<path d="M149.57 32.6328C149.57 36.1897 147.869 39.7981 144.334 43.3169C140.79 46.8452 135.534 50.1375 128.84 52.9561C115.462 58.5891 96.8067 62.1328 76.0703 62.1328C55.334 62.1328 36.6785 58.5891 23.3003 52.9561C16.6062 50.1375 11.3508 46.8452 7.80653 43.3169C4.27177 39.7981 2.57031 36.1897 2.57031 32.6328C2.57031 29.0759 4.27177 25.4675 7.80653 21.9487C11.3508 18.4205 16.6062 15.1281 23.3003 12.3095C36.6785 6.67657 55.334 3.13281 76.0703 3.13281C96.8067 3.13281 115.462 6.67657 128.84 12.3095C135.534 15.1281 140.79 18.4205 144.334 21.9487C147.869 25.4675 149.57 29.0759 149.57 32.6328Z" stroke="#FF5941" stroke-width="5"/>
<path d="M38.0244 43.6309H33.9924V18.4309H38.0244L47.6004 35.2429L57.1404 18.4309H61.2084V43.6309H57.1404V26.0989L48.9324 40.6429H46.2684L38.0244 26.0989V43.6309ZM74.8741 44.0989C72.0661 44.0989 69.7261 43.1629 67.8541 41.2909C65.9821 39.4189 65.0461 37.0789 65.0461 34.2709C65.0461 31.4629 65.9821 29.1229 67.8541 27.2509C69.7261 25.3789 72.0661 24.4429 74.8741 24.4429C77.6821 24.4429 80.0221 25.3789 81.8941 27.2509C83.7901 29.1229 84.7381 31.4629 84.7381 34.2709C84.7381 37.0789 83.7901 39.4189 81.8941 41.2909C80.0221 43.1629 77.6821 44.0989 74.8741 44.0989ZM74.8741 40.3549C76.6021 40.3549 78.0181 39.7789 79.1221 38.6269C80.2741 37.4509 80.8501 35.9989 80.8501 34.2709C80.8501 32.5429 80.2741 31.1029 79.1221 29.9509C78.0181 28.7749 76.6021 28.1869 74.8741 28.1869C73.1941 28.1869 71.7781 28.7749 70.6261 29.9509C69.4981 31.1269 68.9341 32.5669 68.9341 34.2709C68.9341 35.9749 69.4981 37.4269 70.6261 38.6269C71.7781 39.7789 73.1941 40.3549 74.8741 40.3549ZM92.1181 24.9109V27.6469C93.5341 25.5109 95.7541 24.4429 98.7781 24.4429V28.6189C98.3461 28.4269 97.8061 28.3309 97.1581 28.3309C95.7181 28.3309 94.5181 28.7989 93.5581 29.7349C92.5981 30.6229 92.1181 31.7749 92.1181 33.1909V43.6309H88.3741V24.9109H92.1181ZM119.431 35.6389H103.879C104.167 37.1029 104.875 38.3029 106.003 39.2389C107.155 40.1509 108.511 40.6069 110.071 40.6069C112.183 40.6069 113.839 39.8269 115.039 38.2669L118.711 39.3829C117.847 40.8469 116.647 41.9989 115.111 42.8389C113.599 43.6789 111.919 44.0989 110.071 44.0989C107.191 44.0989 104.803 43.1629 102.907 41.2909C100.987 39.4189 100.027 37.0789 100.027 34.2709C100.027 31.4869 100.951 29.1469 102.799 27.2509C104.671 25.3789 106.999 24.4429 109.783 24.4429C112.567 24.4429 114.871 25.3789 116.695 27.2509C118.567 29.1229 119.503 31.4629 119.503 34.2709C119.503 34.3669 119.479 34.8229 119.431 35.6389ZM103.915 32.6509H115.651C115.315 31.2589 114.595 30.1309 113.491 29.2669C112.387 28.3789 111.115 27.9349 109.675 27.9349C108.307 27.9349 107.083 28.3789 106.003 29.2669C104.947 30.1309 104.251 31.2589 103.915 32.6509Z" fill="#FF5941"/>
</svg>
