<svg width="320" height="128" viewBox="0 0 320 128" fill="none" xmlns="http://www.w3.org/2000/svg">
<g clip-path="url(#clip0_1_846)">
<path d="M179.452 68.0801C179.452 71.6912 178.646 74.5801 177.033 76.9072C175.097 79.6356 172.436 80.9998 168.968 80.9998C165.742 80.9998 163.162 79.7961 161.307 77.469C159.452 75.1418 158.484 71.9319 158.484 67.9998C158.484 64.3085 159.371 61.3393 161.065 58.9319C163.001 56.364 165.581 55.0801 168.888 55.0801C172.275 55.0801 174.855 56.364 176.791 58.8517C178.565 61.1788 179.452 64.2282 179.452 68.0801ZM177.355 67.9998C177.355 64.6295 176.63 61.9813 175.097 59.9751C173.646 57.969 171.549 57.006 168.888 57.006C166.226 57.006 164.13 58.1295 162.597 60.2961C161.226 62.3023 160.501 64.8702 160.501 67.9196C160.501 71.1295 161.146 73.6171 162.436 75.543C163.888 77.79 166.065 78.9134 168.968 78.9134C171.791 78.9134 173.888 77.79 175.42 75.4628C176.71 73.6171 177.355 71.1295 177.355 67.9998Z" fill="#4A4A4A"/>
<path d="M145.742 71.2106V81.0007H140.42V71.1304L132.113 55.6427H138.242L143.162 65.8341L148.162 55.6427H154.129L145.742 71.2106Z" fill="#4A4A4A"/>
<path d="M131.066 60.3771H123.727V81.0006H118.324V60.3771H110.904V55.6426H131.066V60.3771Z" fill="#4A4A4A"/>
<path d="M101.951 67.7599L110.58 81.0006H104.129L98.7256 72.1734L93.3224 81.0006H87.1934L95.8224 67.7599L87.8385 55.6426H94.1288L99.0482 63.8278L103.968 55.6426H109.855L101.951 67.7599Z" fill="#4A4A4A"/>
<path d="M85.7431 60.1364H75.6624V65.6734H84.6947V70.087H75.6624V76.3463H85.985V81.0006H70.3398V55.6426H85.6624V60.1364H85.7431Z" fill="#4A4A4A"/>
<path d="M68.0806 60.3773H60.7419V81.0007H55.3387V60.3773H48V55.6427H68.0806V60.3773Z" fill="#4A4A4A"/>
<path d="M223 80.358H221.145V76.1049C220.338 77.7099 219.209 78.9136 217.838 79.716C216.468 80.5185 214.774 80.9198 212.758 80.9198C209.451 80.9198 206.951 79.6358 205.177 77.1481C203.564 74.821 202.758 71.6914 202.758 67.8395C202.758 63.9074 203.645 60.7778 205.419 58.5309C207.274 56.1235 209.855 55 213.161 55C215.661 55 217.758 55.642 219.451 56.9259C221.145 58.2099 222.193 60.216 222.677 62.784H220.58C220.177 60.9383 219.371 59.5741 218 58.5309C216.629 57.4877 215.177 57.0062 213.403 57.0062C210.58 57.0062 208.403 58.0494 206.951 60.216C205.58 62.2222 204.935 65.0309 204.935 68.7222C204.935 71.6111 205.661 74.0185 207.113 75.9444C208.645 77.9506 210.661 78.9938 213.161 78.9938C215.338 78.9938 217.193 78.2716 218.645 76.7469C219.371 75.9444 220.016 74.9012 220.419 73.6975C220.822 72.4938 221.064 71.1296 221.064 69.5247H213.322V67.5185H223V80.358Z" fill="#4A4A4A"/>
<path d="M251.39 70.6488C251.39 74.0994 250.583 76.7475 249.051 78.4327C247.438 80.1179 245.261 81.0006 242.358 81.0006C239.535 81.0006 237.438 80.2784 235.825 78.7537C234.051 76.9883 233.164 74.3401 233.164 70.729V55.6426H235.422V70.087C235.422 73.2167 235.987 75.4636 237.116 76.908C238.245 78.2722 239.938 78.9944 242.277 78.9944C244.616 78.9944 246.309 78.3525 247.358 77.1488C248.567 75.7846 249.212 73.4574 249.212 70.2475V55.6426H251.471V70.6488H251.39Z" fill="#4A4A4A"/>
<path d="M272.999 81.0006H270.741L267.999 73.0562H257.273L254.532 81.0006H252.273L261.548 55.6426H264.048L272.999 81.0006ZM267.273 70.9697L262.677 57.6488L258.08 70.9697H267.273Z" fill="#4A4A4A"/>
<path d="M154.614 81C155.906 81 156.953 79.9581 156.953 78.6729C156.953 77.3876 155.906 76.3457 154.614 76.3457C153.322 76.3457 152.275 77.3876 152.275 78.6729C152.275 79.9581 153.322 81 154.614 81Z" fill="#4A4A4A"/>
<path d="M229.452 81C230.744 81 231.791 79.9581 231.791 78.6729C231.791 77.3876 230.744 76.3457 229.452 76.3457C228.16 76.3457 227.113 77.3876 227.113 78.6729C227.113 79.9581 228.16 81 229.452 81Z" fill="#4A4A4A"/>
<path d="M201.71 80.9209L194.613 69.927C195.339 69.7665 195.903 69.5258 196.71 69.2048C200.097 67.7604 200.5 63.8283 200.5 62.1431C200.5 59.7357 199.774 58.0505 198.323 56.927C197.033 55.9641 195.097 55.4023 192.436 55.4023H183.242V81.0814H185.5V70.1678H192.033L199.049 81.0011L201.71 80.9209ZM185.5 57.4085H192.597C194.694 57.4085 196.226 57.89 197.113 58.853C197.839 59.5752 198.242 60.6986 198.242 62.1431C198.242 63.748 197.758 65.8344 196.71 66.7172C195.662 67.5999 194.291 68.0814 192.516 68.0814H185.5V57.4085Z" fill="#4A4A4A"/>
</g>
<defs>
<clipPath id="clip0_1_846">
<rect width="225" height="26" fill="white" transform="translate(48 55)"/>
</clipPath>
</defs>
</svg>
