<svg width="320" height="128" viewBox="0 0 320 128" fill="none" xmlns="http://www.w3.org/2000/svg">
<g clip-path="url(#clip0_1_863)">
<path d="M89.5532 79.0455C89.5532 79.067 89.5318 79.0884 89.5104 79.0884C89.489 79.0884 89.4676 79.067 89.4676 79.0455C88.6969 72.7238 90.3881 67.3022 94.4985 64.9021L102.077 60.5305L94.4985 56.1589C90.3881 53.7802 88.6755 48.3586 89.4676 42.0369C89.4676 42.0154 89.489 41.994 89.5104 41.994C89.5318 41.994 89.5532 42.0154 89.5532 42.0369C89.6389 44.6298 91.3515 47.3942 94.263 49.0657L106.894 56.3732C107.279 56.5875 107.643 56.8446 107.964 57.1018C110.362 55.4088 111.775 52.923 111.839 50.5872C111.839 50.5658 111.861 50.5444 111.882 50.5444C111.903 50.5444 111.925 50.5658 111.925 50.5872C112.396 54.3802 111.968 57.8518 110.662 60.5305C111.625 62.502 112.117 64.9235 112.117 67.5808V71.1809C112.117 76.2168 110.362 80.3956 106.894 82.3885L94.263 89.6745C91.3729 91.346 89.6389 94.1104 89.5746 96.7034C89.5746 96.7248 89.5532 96.7463 89.5318 96.7463C89.5104 96.7463 89.489 96.7248 89.489 96.7034C88.7183 90.3817 90.4096 84.9601 94.5199 82.56L107.151 75.2739C108.243 74.6525 109.163 73.8596 109.891 72.981C110.769 71.931 111.261 70.688 111.261 69.3594C111.261 68.0736 110.79 66.8522 109.977 65.845C109.42 65.1592 108.735 64.5164 107.964 63.9592C107.622 64.2163 107.258 64.4735 106.894 64.6878L94.263 71.9738C91.3515 73.6667 89.6389 76.4311 89.5532 79.0455Z" fill="#4A4A4A"/>
<path d="M109.891 37.987C109.891 41.63 106.936 44.5873 103.297 44.5873C99.6575 44.5873 96.7031 41.63 96.7031 37.987C96.7031 34.344 99.6575 31.3867 103.297 31.3867C106.936 31.3867 109.891 34.344 109.891 37.987Z" fill="#4A4A4A"/>
<path d="M131.752 47.3944H130.553V41.9941H131.752V47.3944ZM131.752 80.1386H130.553V52.6874H131.752V80.1386Z" fill="#4A4A4A"/>
<path d="M158.62 60.7881C158.62 55.2807 154.51 53.0949 148.601 53.0949C139.909 53.0949 139.31 57.9594 139.31 58.9237C139.31 61.6453 140.637 62.9739 142.756 63.7239C144.94 64.474 147.402 64.9454 150.72 65.7597C155.494 66.8312 160.675 67.9027 160.675 73.1315C160.675 78.6388 154.809 80.7818 149.436 80.7818C141.279 80.7818 136.869 77.6316 136.869 70.7314H138.068C138.068 76.8173 142.243 79.7103 149.414 79.7103C153.889 79.7103 159.433 77.9531 159.433 73.2386C159.433 68.3741 154.06 67.6241 148.751 66.4455C145.796 65.8026 143.548 65.2668 141.814 64.5811C139.288 63.6168 138.068 61.8596 138.068 58.9237C138.068 55.8807 140.851 52.0234 148.579 52.0234C155.473 52.0234 159.819 54.7021 159.819 60.7881H158.62Z" fill="#4A4A4A"/>
<path d="M167.545 47.3944H166.346V41.9941H167.545V47.3944ZM167.545 80.1386H166.346V52.6874H167.545V80.1386Z" fill="#4A4A4A"/>
<path d="M198.33 41.9941H199.529V80.1386H198.33V72.4454H198.202C196.639 77.2456 192.1 80.7815 185.763 80.7815C177.543 80.7815 172.533 74.7384 172.533 66.4666C172.533 58.7734 177.179 52.0446 185.763 52.0446C192.336 52.0446 196.746 55.409 198.202 60.3806H198.33C198.33 60.3806 198.33 41.9941 198.33 41.9941ZM185.785 53.116C177.264 53.116 173.775 60.1235 173.775 66.4666C173.775 73.5169 177.757 79.71 185.785 79.71C193.749 79.71 198.351 73.5597 198.351 66.4666C198.33 57.9805 193.321 53.116 185.785 53.116Z" fill="#4A4A4A"/>
<path d="M206.55 61.1739C206.849 55.9879 210.724 52.0449 218.388 52.0449C223.89 52.0449 228.472 53.9093 228.643 59.8881V77.3531C228.643 79.4318 230.869 79.2175 232.561 79.0675V80.1389C230.206 80.2889 227.423 80.2889 227.423 77.4603V73.8815H227.294C226.074 77.4174 221.364 80.7818 214.985 80.7818C208.819 80.7818 204.602 78.2103 204.602 73.3672C204.602 66.5741 210.103 65.4598 215.284 65.1383C223.805 64.7097 227.423 64.8812 227.423 60.7024C227.423 57.3809 226.631 53.1164 218.367 53.1164C211.902 53.1164 208.155 56.0522 207.749 61.1739H206.55V61.1739ZM227.444 64.0026H227.316C225.689 66.0812 220.315 65.8669 215.306 66.1884C210.403 66.5098 205.822 67.4741 205.822 73.3458C205.822 76.4959 208.113 79.6889 214.877 79.6889C222.97 79.6889 227.444 74.4601 227.444 69.0599V64.0026Z" fill="#4A4A4A"/>
<path d="M204.861 92.2901C204.754 90.8971 203.64 90.19 202.228 90.19C200.258 90.19 199.23 91.9258 199.23 93.7044C199.23 95.8259 200.215 97.3688 202.228 97.3688C203.683 97.3688 204.754 96.3617 204.946 94.9473H205.524C205.267 96.8117 203.919 97.8831 202.228 97.8831C199.701 97.8831 198.652 95.8902 198.652 93.7258C198.652 91.5615 199.915 89.7185 202.228 89.7185C203.919 89.7185 205.267 90.5328 205.439 92.3115H204.861V92.2901V92.2901Z" fill="#4A4A4A"/>
<path d="M208.328 86.8242V97.6675H207.75V86.8242H208.328Z" fill="#4A4A4A"/>
<path d="M211.068 88.3886V86.8242H211.646V88.3886H211.068ZM211.068 97.6675V89.8672H211.646V97.6675H211.068Z" fill="#4A4A4A"/>
<path d="M214.236 89.8667H214.814V91.5382H214.836C215.221 90.3596 216.42 89.6953 217.619 89.6953C220.359 89.6953 220.402 91.9026 220.402 92.8454V97.6671H219.824V92.7383C219.824 91.924 219.738 90.1882 217.597 90.1882C215.842 90.1882 214.793 91.5382 214.793 93.4455V97.6671H214.215V89.8667H214.236Z" fill="#4A4A4A"/>
<path d="M223.014 88.3886V86.8242H223.592V88.3886H223.014ZM223.014 97.6675V89.8672H223.592V97.6675C223.592 97.6675 223.014 97.6675 223.014 97.6675Z" fill="#4A4A4A"/>
<path d="M232.048 92.2901C231.941 90.8971 230.807 90.19 229.415 90.19C227.467 90.19 226.418 91.9258 226.418 93.7044C226.418 95.8259 227.403 97.3688 229.415 97.3688C230.871 97.3688 231.941 96.3617 232.134 94.9473H232.712C232.455 96.8117 231.106 97.8831 229.415 97.8831C226.889 97.8831 225.84 95.8902 225.84 93.7258C225.84 91.5615 227.124 89.7185 229.415 89.7185C231.106 89.7185 232.476 90.5328 232.626 92.3115H232.048V92.2901V92.2901Z" fill="#4A4A4A"/>
</g>
<defs>
<clipPath id="clip0_1_863">
<rect width="149.429" height="79.289" fill="white" transform="translate(83.2793 25.4512)"/>
</clipPath>
</defs>
</svg>
