<svg width="62" height="44" viewBox="0 0 62 44" fill="none" xmlns="http://www.w3.org/2000/svg">
<path fill-rule="evenodd" clip-rule="evenodd" d="M32.146 5.19929C31.608 5.32412 31.2871 5.86532 31.2754 6.41748C31.2374 8.20262 29.9986 9.80381 28.1795 10.2259C26.3603 10.648 24.5431 9.75591 23.7229 8.1699C23.4692 7.67934 22.9428 7.33473 22.4048 7.45956L0.974121 12.4322C0.436129 12.557 0.101196 13.0943 0.226028 13.6323L7.00686 42.8559C7.13169 43.3939 7.66902 43.7289 8.20701 43.604L29.6377 38.6314C30.1757 38.5066 30.4965 37.9654 30.5083 37.4132C30.5463 35.6281 31.785 34.0269 33.6042 33.6048C35.4233 33.1827 37.2406 34.0748 38.0608 35.6608C38.3145 36.1514 38.8409 36.496 39.3789 36.3712L60.8095 31.3985C61.3475 31.2737 61.6825 30.7364 61.5576 30.1984L54.7768 0.974767C54.652 0.436775 54.1146 0.101842 53.5766 0.226674L32.146 5.19929Z" fill="#C7DDED"/>
<path d="M10.8682 23.7291L8.60822 24.2535L8.32794 23.0456L14.1629 21.6917L14.4432 22.8996L12.1832 23.424L13.4852 29.0349L12.1701 29.3401L10.8682 23.7291ZM16.4997 28.3355L14.8045 21.0296L16.0221 20.747L16.6844 23.6012C16.9435 23.0073 17.4075 22.6327 18.0764 22.4775C18.6674 22.3404 19.1949 22.4164 19.659 22.7057C20.1375 22.9984 20.4416 23.4241 20.5712 23.9826L21.3216 27.2166L20.1137 27.4969L19.4424 24.6038C19.3655 24.2726 19.1878 24.0229 18.9093 23.8549C18.6308 23.6868 18.3194 23.6427 17.9752 23.7226C17.631 23.8024 17.3709 23.9792 17.1949 24.2527C17.0188 24.5262 16.9692 24.8286 17.046 25.1598L17.7173 28.0529L16.4997 28.3355ZM23.4203 21.2375C23.9918 21.1049 24.547 21.1677 25.086 21.4259L24.9933 21.0265L26.2012 20.7463L27.3766 25.8117L26.1687 26.092L26.076 25.6926C25.7058 26.1617 25.2349 26.4626 24.6635 26.5952C23.9686 26.7564 23.3221 26.6395 22.724 26.2445C22.1374 25.84 21.7552 25.2545 21.5774 24.4882C21.3996 23.7219 21.4857 23.0312 21.8357 22.4162C22.1907 21.7932 22.7189 21.4003 23.4203 21.2375ZM24.9203 22.6141C24.5957 22.3952 24.2419 22.3301 23.8587 22.419C23.4691 22.5094 23.1767 22.7244 22.9818 23.0639C22.7868 23.4034 22.7375 23.781 22.834 24.1966C22.9304 24.6123 23.1409 24.9296 23.4655 25.1485C23.79 25.3675 24.1471 25.4318 24.5368 25.3414C24.9199 25.2525 25.209 25.0383 25.404 24.6987C25.6039 24.3512 25.6564 23.9729 25.5615 23.5638C25.4666 23.1546 25.2528 22.8381 24.9203 22.6141ZM27.062 21.6655L26.8156 20.6037L27.5365 20.4364L27.3059 19.4428L28.5236 19.1603L28.7541 20.1539L30.0107 19.8623L30.2571 20.9241L29.0005 21.2157L29.5181 23.4464C29.5588 23.6218 29.6511 23.7543 29.7951 23.8441C29.9392 23.9339 30.1021 23.9577 30.2839 23.9155L30.9171 23.7686L31.1861 24.9278L30.436 25.1018C29.9554 25.2133 29.5109 25.1556 29.1024 24.9288C28.7004 24.7004 28.4466 24.3589 28.3411 23.9043L27.7828 21.4982L27.062 21.6655ZM31.8621 18.0058C32.0112 18.6487 31.7647 19.3116 31.1224 19.9945L30.6498 19.6832C30.9311 19.2142 31.0506 18.8888 31.0084 18.7069C30.8191 18.7166 30.6461 18.6644 30.4896 18.5501C30.3395 18.4344 30.2419 18.2791 30.1967 18.0843C30.1485 17.8765 30.1792 17.6845 30.289 17.5085C30.4052 17.331 30.5704 17.2174 30.7847 17.1676C31.0315 17.1104 31.2554 17.1611 31.4565 17.3197C31.6576 17.4784 31.7928 17.7071 31.8621 18.0058ZM36.88 19.5516L35.7832 20.0012C35.596 19.6956 35.2621 19.5986 34.7815 19.7101C34.5737 19.7583 34.4106 19.8372 34.2923 19.9467C34.1805 20.0548 34.1405 20.177 34.1721 20.3134C34.2113 20.4823 34.3923 20.584 34.7151 20.6186L35.8388 20.7274C36.3376 20.7828 36.7187 20.9065 36.9823 21.0986C37.2524 21.2891 37.4303 21.5695 37.5162 21.9396C37.6353 22.4527 37.5413 22.8885 37.2345 23.2472C36.9341 23.6043 36.4819 23.8529 35.878 23.9931C35.274 24.1332 34.76 24.1156 34.3361 23.9402C33.9106 23.7583 33.608 23.4419 33.428 22.9909L34.5293 22.5608C34.617 22.7321 34.758 22.8534 34.9525 22.9246C35.1535 22.9943 35.3903 22.9975 35.6631 22.9342C35.9033 22.8785 36.0884 22.7911 36.2182 22.672C36.3529 22.5449 36.4022 22.4034 36.3661 22.2476C36.3193 22.0463 36.0933 21.9276 35.6881 21.8916L34.5689 21.8023C34.1071 21.7588 33.7565 21.6486 33.5169 21.4715C33.2773 21.2944 33.1161 21.0272 33.0332 20.6701C32.9142 20.157 32.9991 19.7267 33.288 19.3791C33.5819 19.0234 34.0276 18.7763 34.6251 18.6377C35.1706 18.5111 35.64 18.5288 36.0335 18.6907C36.4334 18.8511 36.7156 19.1381 36.88 19.5516ZM40.7322 20.7828L39.9818 17.5487L41.1994 17.2662L41.8685 20.1496C41.9453 20.4808 42.1173 20.7352 42.3843 20.9127C42.6563 21.0823 42.958 21.1287 43.2892 21.0518C43.6139 20.9765 43.861 20.8028 44.0306 20.5308C44.1986 20.2522 44.2442 19.9474 44.1674 19.6162L43.4983 16.7328L44.716 16.4502L45.8913 21.5157L44.6737 21.7982L44.5313 21.1845C44.2787 21.7769 43.8309 22.1477 43.188 22.2969C42.61 22.431 42.089 22.3534 41.6249 22.0642C41.1609 21.7749 40.8633 21.3478 40.7322 20.7828ZM49.7795 16.5585L48.6827 17.0081C48.4955 16.7025 48.1616 16.6055 47.681 16.717C47.4732 16.7652 47.3101 16.8441 47.1918 16.9536C47.08 17.0617 47.0399 17.1839 47.0716 17.3203C47.1108 17.4892 47.2918 17.5909 47.6146 17.6255L48.7383 17.7343C49.2371 17.7897 49.6182 17.9134 49.8818 18.1055C50.1518 18.296 50.3298 18.5764 50.4157 18.9465C50.5347 19.4596 50.4408 19.8954 50.134 20.2541C49.8336 20.6112 49.3814 20.8598 48.7774 21C48.1735 21.1401 47.6595 21.1225 47.2356 20.9471C46.8101 20.7652 46.5074 20.4488 46.3275 19.9978L47.4288 19.5677C47.5165 19.739 47.6575 19.8603 47.852 19.9315C48.0529 20.0012 48.2898 20.0044 48.5626 19.9411C48.8028 19.8854 48.9879 19.798 49.1176 19.6789C49.2524 19.5518 49.3017 19.4103 49.2655 19.2545C49.2188 19.0532 48.9928 18.9345 48.5875 18.8985L47.4684 18.8092C47.0066 18.7657 46.656 18.6555 46.4164 18.4784C46.1768 18.3013 46.0156 18.0341 45.9327 17.677C45.8137 17.1639 45.8986 16.7336 46.1875 16.386C46.4814 16.0303 46.9271 15.7832 47.5246 15.6446C48.0701 15.518 48.5395 15.5357 48.933 15.6976C49.3329 15.858 49.6151 16.145 49.7795 16.5585ZM51.3324 19.5962C51.2826 19.3819 51.3126 19.1867 51.4223 19.0107C51.5371 18.8266 51.7016 18.7098 51.9159 18.66C52.1367 18.6088 52.3358 18.6413 52.5134 18.7575C52.6959 18.8657 52.812 19.027 52.8617 19.2413C52.913 19.4621 52.8812 19.6645 52.7665 19.8485C52.6568 20.0246 52.4915 20.1382 52.2707 20.1894C52.0564 20.2391 51.858 20.2099 51.6755 20.1017C51.498 19.9855 51.3836 19.817 51.3324 19.5962ZM52.2731 17.7662L51.2308 18.008L50.0117 13.3736L51.317 13.0707L52.2731 17.7662Z" fill="#191919"/>
</svg>
